<svg id="mermaid-_r_ej_" width="807.5333251953125" xmlns="http://www.w3.org/2000/svg" class="flowchart" height="1159.7999267578125" viewBox="0 0 807.5333251953125 1159.7999267578125" role="graphics-document document" aria-roledescription="flowchart-v2"><style>#mermaid-_r_ej_{font-family:"trebuchet ms",verdana,arial,sans-serif;font-size:16px;fill:#ccc;}@keyframes edge-animation-frame{from{stroke-dashoffset:0;}}@keyframes dash{to{stroke-dashoffset:0;}}#mermaid-_r_ej_ .edge-animation-slow{stroke-dasharray:9,5!important;stroke-dashoffset:900;animation:dash 50s linear infinite;stroke-linecap:round;}#mermaid-_r_ej_ .edge-animation-fast{stroke-dasharray:9,5!important;stroke-dashoffset:900;animation:dash 20s linear infinite;stroke-linecap:round;}#mermaid-_r_ej_ .error-icon{fill:#a44141;}#mermaid-_r_ej_ .error-text{fill:#ddd;stroke:#ddd;}#mermaid-_r_ej_ .edge-thickness-normal{stroke-width:1px;}#mermaid-_r_ej_ .edge-thickness-thick{stroke-width:3.5px;}#mermaid-_r_ej_ .edge-pattern-solid{stroke-dasharray:0;}#mermaid-_r_ej_ .edge-thickness-invisible{stroke-width:0;fill:none;}#mermaid-_r_ej_ .edge-pattern-dashed{stroke-dasharray:3;}#mermaid-_r_ej_ .edge-pattern-dotted{stroke-dasharray:2;}#mermaid-_r_ej_ .marker{fill:lightgrey;stroke:lightgrey;}#mermaid-_r_ej_ .marker.cross{stroke:lightgrey;}#mermaid-_r_ej_ svg{font-family:"trebuchet ms",verdana,arial,sans-serif;font-size:16px;}#mermaid-_r_ej_ p{margin:0;}#mermaid-_r_ej_ .label{font-family:"trebuchet ms",verdana,arial,sans-serif;color:#ccc;}#mermaid-_r_ej_ .cluster-label text{fill:#F9FFFE;}#mermaid-_r_ej_ .cluster-label span{color:#F9FFFE;}#mermaid-_r_ej_ .cluster-label span p{background-color:transparent;}#mermaid-_r_ej_ .label text,#mermaid-_r_ej_ span{fill:#ccc;color:#ccc;}#mermaid-_r_ej_ .node rect,#mermaid-_r_ej_ .node circle,#mermaid-_r_ej_ .node ellipse,#mermaid-_r_ej_ .node polygon,#mermaid-_r_ej_ .node path{fill:#1f2020;stroke:#ccc;stroke-width:1px;}#mermaid-_r_ej_ .rough-node .label text,#mermaid-_r_ej_ .node .label text,#mermaid-_r_ej_ .image-shape .label,#mermaid-_r_ej_ .icon-shape .label{text-anchor:middle;}#mermaid-_r_ej_ .node .katex path{fill:#000;stroke:#000;stroke-width:1px;}#mermaid-_r_ej_ .rough-node .label,#mermaid-_r_ej_ .node .label,#mermaid-_r_ej_ .image-shape .label,#mermaid-_r_ej_ .icon-shape .label{text-align:center;}#mermaid-_r_ej_ .node.clickable{cursor:pointer;}#mermaid-_r_ej_ .root .anchor path{fill:lightgrey!important;stroke-width:0;stroke:lightgrey;}#mermaid-_r_ej_ .arrowheadPath{fill:lightgrey;}#mermaid-_r_ej_ .edgePath .path{stroke:lightgrey;stroke-width:2.0px;}#mermaid-_r_ej_ .flowchart-link{stroke:lightgrey;fill:none;}#mermaid-_r_ej_ .edgeLabel{background-color:hsl(0, 0%, 34.4117647059%);text-align:center;}#mermaid-_r_ej_ .edgeLabel p{background-color:hsl(0, 0%, 34.4117647059%);}#mermaid-_r_ej_ .edgeLabel rect{opacity:0.5;background-color:hsl(0, 0%, 34.4117647059%);fill:hsl(0, 0%, 34.4117647059%);}#mermaid-_r_ej_ .labelBkg{background-color:rgba(87.75, 87.75, 87.75, 0.5);}#mermaid-_r_ej_ .cluster rect{fill:hsl(180, 1.5873015873%, 28.3529411765%);stroke:rgba(255, 255, 255, 0.25);stroke-width:1px;}#mermaid-_r_ej_ .cluster text{fill:#F9FFFE;}#mermaid-_r_ej_ .cluster span{color:#F9FFFE;}#mermaid-_r_ej_ div.mermaidTooltip{position:absolute;text-align:center;max-width:200px;padding:2px;font-family:"trebuchet ms",verdana,arial,sans-serif;font-size:12px;background:hsl(20, 1.5873015873%, 12.3529411765%);border:1px solid rgba(255, 255, 255, 0.25);border-radius:2px;pointer-events:none;z-index:100;}#mermaid-_r_ej_ .flowchartTitleText{text-anchor:middle;font-size:18px;fill:#ccc;}#mermaid-_r_ej_ rect.text{fill:none;stroke-width:0;}#mermaid-_r_ej_ .icon-shape,#mermaid-_r_ej_ .image-shape{background-color:hsl(0, 0%, 34.4117647059%);text-align:center;}#mermaid-_r_ej_ .icon-shape p,#mermaid-_r_ej_ .image-shape p{background-color:hsl(0, 0%, 34.4117647059%);padding:2px;}#mermaid-_r_ej_ .icon-shape rect,#mermaid-_r_ej_ .image-shape rect{opacity:0.5;background-color:hsl(0, 0%, 34.4117647059%);fill:hsl(0, 0%, 34.4117647059%);}#mermaid-_r_ej_ .label-icon{display:inline-block;height:1em;overflow:visible;vertical-align:-0.125em;}#mermaid-_r_ej_ .node .label-icon path{fill:currentColor;stroke:revert;stroke-width:revert;}#mermaid-_r_ej_ :root{--mermaid-font-family:"trebuchet ms",verdana,arial,sans-serif;}</style><g><marker id="mermaid-_r_ej__flowchart-v2-pointEnd" class="marker flowchart-v2" viewBox="0 0 10 10" refX="5" refY="5" markerUnits="userSpaceOnUse" markerWidth="8" markerHeight="8" orient="auto"><path d="M 0 0 L 10 5 L 0 10 z" class="arrowMarkerPath" style="stroke-width: 1px; stroke-dasharray: 1px, 0px;"></path></marker><marker id="mermaid-_r_ej__flowchart-v2-pointStart" class="marker flowchart-v2" viewBox="0 0 10 10" refX="4.5" refY="5" markerUnits="userSpaceOnUse" markerWidth="8" markerHeight="8" orient="auto"><path d="M 0 5 L 10 10 L 10 0 z" class="arrowMarkerPath" style="stroke-width: 1px; stroke-dasharray: 1px, 0px;"></path></marker><marker id="mermaid-_r_ej__flowchart-v2-circleEnd" class="marker flowchart-v2" viewBox="0 0 10 10" refX="11" refY="5" markerUnits="userSpaceOnUse" markerWidth="11" markerHeight="11" orient="auto"><circle cx="5" cy="5" r="5" class="arrowMarkerPath" style="stroke-width: 1px; stroke-dasharray: 1px, 0px;"></circle></marker><marker id="mermaid-_r_ej__flowchart-v2-circleStart" class="marker flowchart-v2" viewBox="0 0 10 10" refX="-1" refY="5" markerUnits="userSpaceOnUse" markerWidth="11" markerHeight="11" orient="auto"><circle cx="5" cy="5" r="5" class="arrowMarkerPath" style="stroke-width: 1px; stroke-dasharray: 1px, 0px;"></circle></marker><marker id="mermaid-_r_ej__flowchart-v2-crossEnd" class="marker cross flowchart-v2" viewBox="0 0 11 11" refX="12" refY="5.2" markerUnits="userSpaceOnUse" markerWidth="11" markerHeight="11" orient="auto"><path d="M 1,1 l 9,9 M 10,1 l -9,9" class="arrowMarkerPath" style="stroke-width: 2px; stroke-dasharray: 1px, 0px;"></path></marker><marker id="mermaid-_r_ej__flowchart-v2-crossStart" class="marker cross flowchart-v2" viewBox="0 0 11 11" refX="-1" refY="5.2" markerUnits="userSpaceOnUse" markerWidth="11" markerHeight="11" orient="auto"><path d="M 1,1 l 9,9 M 10,1 l -9,9" class="arrowMarkerPath" style="stroke-width: 2px; stroke-dasharray: 1px, 0px;"></path></marker><g class="root"><g class="clusters"></g><g class="edgePaths"><path d="M520.604,40.7L520.521,44.783C520.437,48.867,520.271,57.033,520.187,64.617C520.104,72.2,520.104,79.2,520.104,82.7L520.104,86.2" id="L_Bug_Registro_0" class="edge-thickness-normal edge-pattern-solid edge-thickness-normal edge-pattern-solid flowchart-link" style=";" data-edge="true" data-et="edge" data-id="L_Bug_Registro_0" data-points="W3sieCI6NTIwLjYwNDE1NjQ5NDE0MDYsInkiOjQwLjcwMDAwMDc2MjkzOTQ2fSx7IngiOjUyMC4xMDQxNTY0OTQxNDA2LCJ5Ijo2NS4yMDAwMDA3NjI5Mzk0NX0seyJ4Ijo1MjAuMTA0MTU2NDk0MTQwNiwieSI6OTAuMjAwMDAwNzYyOTM5NDV9XQ==" marker-end="url(#mermaid-_r_ej__flowchart-v2-pointEnd)"></path><path d="M520.104,137.4L520.104,141.567C520.104,145.733,520.104,154.067,520.104,161.733C520.104,169.4,520.104,176.4,520.104,179.9L520.104,183.4" id="L_Registro_Etiqueta_0" class="edge-thickness-normal edge-pattern-solid edge-thickness-normal edge-pattern-solid flowchart-link" style=";" data-edge="true" data-et="edge" data-id="L_Registro_Etiqueta_0" data-points="W3sieCI6NTIwLjEwNDE1NjQ5NDE0MDYsInkiOjEzNy40MDAwMDE1MjU4Nzg5fSx7IngiOjUyMC4xMDQxNTY0OTQxNDA2LCJ5IjoxNjIuNDAwMDAxNTI1ODc4OX0seyJ4Ijo1MjAuMTA0MTU2NDk0MTQwNiwieSI6MTg3LjQwMDAwMTUyNTg3ODl9XQ==" marker-end="url(#mermaid-_r_ej__flowchart-v2-pointEnd)"></path><path d="M431.354,221.386L376.927,227.755C322.5,234.124,213.646,246.862,159.219,256.731C104.792,266.6,104.792,273.6,104.792,277.1L104.792,280.6" id="L_Etiqueta_Critico_0" class="edge-thickness-normal edge-pattern-solid edge-thickness-normal edge-pattern-solid flowchart-link" style=";" data-edge="true" data-et="edge" data-id="L_Etiqueta_Critico_0" data-points="W3sieCI6NDMxLjM1NDE1NjQ5NDE0MDYsInkiOjIyMS4zODU1NTUyMjcwNTU5fSx7IngiOjEwNC43OTE2NjQxMjM1MzUxNiwieSI6MjU5LjYwMDAwMjI4ODgxODM2fSx7IngiOjEwNC43OTE2NjQxMjM1MzUxNiwieSI6Mjg0LjYwMDAwMjI4ODgxODM2fV0=" marker-end="url(#mermaid-_r_ej__flowchart-v2-pointEnd)"></path><path d="M431.541,234.6L415.905,238.767C400.269,242.933,368.997,251.267,353.361,258.933C337.725,266.6,337.725,273.6,337.725,277.1L337.725,280.6" id="L_Etiqueta_Alto_0" class="edge-thickness-normal edge-pattern-solid edge-thickness-normal edge-pattern-solid flowchart-link" style=";" data-edge="true" data-et="edge" data-id="L_Etiqueta_Alto_0" data-points="W3sieCI6NDMxLjU0MTQzMzM0MzY0MDUsInkiOjIzNC42MDAwMDIyODg4MTgzNn0seyJ4IjozMzcuNzI0OTkwODQ0NzI2NTYsInkiOjI1OS42MDAwMDIyODg4MTgzNn0seyJ4IjozMzcuNzI0OTkwODQ0NzI2NTYsInkiOjI4NC42MDAwMDIyODg4MTgzNn1d" marker-end="url(#mermaid-_r_ej__flowchart-v2-pointEnd)"></path><path d="M525.517,234.6L526.472,238.767C527.428,242.933,529.339,251.267,530.294,258.933C531.25,266.6,531.25,273.6,531.25,277.1L531.25,280.6" id="L_Etiqueta_Medio_0" class="edge-thickness-normal edge-pattern-solid edge-thickness-normal edge-pattern-solid flowchart-link" style=";" data-edge="true" data-et="edge" data-id="L_Etiqueta_Medio_0" data-points="W3sieCI6NTI1LjUxNjUzNTg5NDI0MDUsInkiOjIzNC42MDAwMDIyODg4MTgzNn0seyJ4Ijo1MzEuMjQ5OTg4NTU1OTA4MiwieSI6MjU5LjYwMDAwMjI4ODgxODM2fSx7IngiOjUzMS4yNDk5ODg1NTU5MDgyLCJ5IjoyODQuNjAwMDAyMjg4ODE4MzZ9XQ==" marker-end="url(#mermaid-_r_ej__flowchart-v2-pointEnd)"></path><path d="M608.854,232.677L627.226,237.164C645.597,241.651,682.34,250.626,700.712,258.613C719.083,266.6,719.083,273.6,719.083,277.1L719.083,280.6" id="L_Etiqueta_Bajo_0" class="edge-thickness-normal edge-pattern-solid edge-thickness-normal edge-pattern-solid flowchart-link" style=";" data-edge="true" data-et="edge" data-id="L_Etiqueta_Bajo_0" data-points="W3sieCI6NjA4Ljg1NDE1NjQ5NDE0MDYsInkiOjIzMi42NzY4OTQ4MjY1MzY4fSx7IngiOjcxOS4wODMzMjA2MTc2NzU4LCJ5IjoyNTkuNjAwMDAyMjg4ODE4MzZ9LHsieCI6NzE5LjA4MzMyMDYxNzY3NTgsInkiOjI4NC42MDAwMDIyODg4MTgzNn1d" marker-end="url(#mermaid-_r_ej__flowchart-v2-pointEnd)"></path><path d="M104.792,331.8L104.792,335.967C104.792,340.133,104.792,348.467,104.792,356.133C104.792,363.8,104.792,370.8,104.792,374.3L104.792,377.8" id="L_Critico_Reunion_0" class="edge-thickness-normal edge-pattern-solid edge-thickness-normal edge-pattern-solid flowchart-link" style=";" data-edge="true" data-et="edge" data-id="L_Critico_Reunion_0" data-points="W3sieCI6MTA0Ljc5MTY2NDEyMzUzNTE2LCJ5IjozMzEuODAwMDAzMDUxNzU3OH0seyJ4IjoxMDQuNzkxNjY0MTIzNTM1MTYsInkiOjM1Ni44MDAwMDMwNTE3NTc4fSx7IngiOjEwNC43OTE2NjQxMjM1MzUxNiwieSI6MzgxLjgwMDAwMzA1MTc1Nzh9XQ==" marker-end="url(#mermaid-_r_ej__flowchart-v2-pointEnd)"></path><path d="M337.725,331.8L337.725,335.967C337.725,340.133,337.725,348.467,337.725,356.133C337.725,363.8,337.725,370.8,337.725,374.3L337.725,377.8" id="L_Alto_Sprint_0" class="edge-thickness-normal edge-pattern-solid edge-thickness-normal edge-pattern-solid flowchart-link" style=";" data-edge="true" data-et="edge" data-id="L_Alto_Sprint_0" data-points="W3sieCI6MzM3LjcyNDk5MDg0NDcyNjU2LCJ5IjozMzEuODAwMDAzMDUxNzU3OH0seyJ4IjozMzcuNzI0OTkwODQ0NzI2NTYsInkiOjM1Ni44MDAwMDMwNTE3NTc4fSx7IngiOjMzNy43MjQ5OTA4NDQ3MjY1NiwieSI6MzgxLjgwMDAwMzA1MTc1Nzh9XQ==" marker-end="url(#mermaid-_r_ej__flowchart-v2-pointEnd)"></path><path d="M531.25,331.8L531.25,335.967C531.25,340.133,531.25,348.467,531.25,356.133C531.25,363.8,531.25,370.8,531.25,374.3L531.25,377.8" id="L_Medio_Backlog_0" class="edge-thickness-normal edge-pattern-solid edge-thickness-normal edge-pattern-solid flowchart-link" style=";" data-edge="true" data-et="edge" data-id="L_Medio_Backlog_0" data-points="W3sieCI6NTMxLjI0OTk4ODU1NTkwODIsInkiOjMzMS44MDAwMDMwNTE3NTc4fSx7IngiOjUzMS4yNDk5ODg1NTU5MDgyLCJ5IjozNTYuODAwMDAzMDUxNzU3OH0seyJ4Ijo1MzEuMjQ5OTg4NTU1OTA4MiwieSI6MzgxLjgwMDAwMzA1MTc1Nzh9XQ==" marker-end="url(#mermaid-_r_ej__flowchart-v2-pointEnd)"></path><path d="M719.083,331.8L719.083,335.967C719.083,340.133,719.083,348.467,719.083,356.133C719.083,363.8,719.083,370.8,719.083,374.3L719.083,377.8" id="L_Bajo_Futuro_0" class="edge-thickness-normal edge-pattern-solid edge-thickness-normal edge-pattern-solid flowchart-link" style=";" data-edge="true" data-et="edge" data-id="L_Bajo_Futuro_0" data-points="W3sieCI6NzE5LjA4MzMyMDYxNzY3NTgsInkiOjMzMS44MDAwMDMwNTE3NTc4fSx7IngiOjcxOS4wODMzMjA2MTc2NzU4LCJ5IjozNTYuODAwMDAzMDUxNzU3OH0seyJ4Ijo3MTkuMDgzMzIwNjE3Njc1OCwieSI6MzgxLjgwMDAwMzA1MTc1Nzh9XQ==" marker-end="url(#mermaid-_r_ej__flowchart-v2-pointEnd)"></path><path d="M104.792,429L104.792,433.167C104.792,437.333,104.792,445.667,126.158,454.291C147.525,462.916,190.259,471.832,211.626,476.29L232.993,480.748" id="L_Reunion_Asignar_0" class="edge-thickness-normal edge-pattern-solid edge-thickness-normal edge-pattern-solid flowchart-link" style=";" data-edge="true" data-et="edge" data-id="L_Reunion_Asignar_0" data-points="W3sieCI6MTA0Ljc5MTY2NDEyMzUzNTE2LCJ5Ijo0MjkuMDAwMDAzODE0Njk3Mjd9LHsieCI6MTA0Ljc5MTY2NDEyMzUzNTE2LCJ5Ijo0NTQuMDAwMDAzODE0Njk3Mjd9LHsieCI6MjM2LjkwODMyNTE5NTMxMjUsInkiOjQ4MS41NjUyNzI2Nzg4MzE2fV0=" marker-end="url(#mermaid-_r_ej__flowchart-v2-pointEnd)"></path><path d="M337.725,429L337.725,433.167C337.725,437.333,337.725,445.667,337.725,453.333C337.725,461,337.725,468,337.725,471.5L337.725,475" id="L_Sprint_Asignar_0" class="edge-thickness-normal edge-pattern-solid edge-thickness-normal edge-pattern-solid flowchart-link" style=";" data-edge="true" data-et="edge" data-id="L_Sprint_Asignar_0" data-points="W3sieCI6MzM3LjcyNDk5MDg0NDcyNjU2LCJ5Ijo0MjkuMDAwMDAzODE0Njk3Mjd9LHsieCI6MzM3LjcyNDk5MDg0NDcyNjU2LCJ5Ijo0NTQuMDAwMDAzODE0Njk3Mjd9LHsieCI6MzM3LjcyNDk5MDg0NDcyNjU2LCJ5Ijo0NzkuMDAwMDAzODE0Njk3Mjd9XQ==" marker-end="url(#mermaid-_r_ej__flowchart-v2-pointEnd)"></path><path d="M531.25,429L531.25,433.167C531.25,437.333,531.25,445.667,515.305,453.838C499.36,462.009,467.47,470.017,451.525,474.021L435.58,478.026" id="L_Backlog_Asignar_0" class="edge-thickness-normal edge-pattern-solid edge-thickness-normal edge-pattern-solid flowchart-link" style=";" data-edge="true" data-et="edge" data-id="L_Backlog_Asignar_0" data-points="W3sieCI6NTMxLjI0OTk4ODU1NTkwODIsInkiOjQyOS4wMDAwMDM4MTQ2OTcyN30seyJ4Ijo1MzEuMjQ5OTg4NTU1OTA4MiwieSI6NDU0LjAwMDAwMzgxNDY5NzI3fSx7IngiOjQzMS43MDAwOTMzOTUzMjY1LCJ5Ijo0NzkuMDAwMDAzODE0Njk3Mjd9XQ==" marker-end="url(#mermaid-_r_ej__flowchart-v2-pointEnd)"></path><path d="M337.725,526.2L337.725,530.367C337.725,534.533,337.725,542.867,337.725,550.533C337.725,558.2,337.725,565.2,337.725,568.7L337.725,572.2" id="L_Asignar_Fix_0" class="edge-thickness-normal edge-pattern-solid edge-thickness-normal edge-pattern-solid flowchart-link" style=";" data-edge="true" data-et="edge" data-id="L_Asignar_Fix_0" data-points="W3sieCI6MzM3LjcyNDk5MDg0NDcyNjU2LCJ5Ijo1MjYuMjAwMDA0NTc3NjM2N30seyJ4IjozMzcuNzI0OTkwODQ0NzI2NTYsInkiOjU1MS4yMDAwMDQ1Nzc2MzY3fSx7IngiOjMzNy43MjQ5OTA4NDQ3MjY1NiwieSI6NTc2LjIwMDAwNDU3NzYzNjd9XQ==" marker-end="url(#mermaid-_r_ej__flowchart-v2-pointEnd)"></path><path d="M281.169,623.4L271.184,627.567C261.199,631.733,241.229,640.067,231.243,647.733C221.258,655.4,221.258,662.4,221.258,665.9L221.258,669.4" id="L_Fix_PR_0" class="edge-thickness-normal edge-pattern-solid edge-thickness-normal edge-pattern-solid flowchart-link" style=";" data-edge="true" data-et="edge" data-id="L_Fix_PR_0" data-points="W3sieCI6MjgxLjE2OTE2MjA3NTkxNTI3LCJ5Ijo2MjMuNDAwMDA1MzQwNTc2Mn0seyJ4IjoyMjEuMjU4MzI3NDg0MTMwODYsInkiOjY0OC40MDAwMDUzNDA1NzYyfSx7IngiOjIyMS4yNTgzMjc0ODQxMzA4NiwieSI6NjczLjQwMDAwNTM0MDU3NjJ9XQ==" marker-end="url(#mermaid-_r_ej__flowchart-v2-pointEnd)"></path><path d="M221.258,720.6L221.258,724.767C221.258,728.933,221.258,737.267,225.242,745.146C229.226,753.024,237.194,760.449,241.178,764.161L245.162,767.873" id="L_PR_Revision_0" class="edge-thickness-normal edge-pattern-solid edge-thickness-normal edge-pattern-solid flowchart-link" style=";" data-edge="true" data-et="edge" data-id="L_PR_Revision_0" data-points="W3sieCI6MjIxLjI1ODMyNzQ4NDEzMDg2LCJ5Ijo3MjAuNjAwMDA2MTAzNTE1Nn0seyJ4IjoyMjEuMjU4MzI3NDg0MTMwODYsInkiOjc0NS42MDAwMDYxMDM1MTU2fSx7IngiOjI0OC4wODg3NDI5NDAzNzM1NSwieSI6NzcwLjYwMDAwNjEwMzUxNTZ9XQ==" marker-end="url(#mermaid-_r_ej__flowchart-v2-pointEnd)"></path><path d="M273.417,817.8L273.417,823.733C273.417,829.667,273.417,841.533,273.417,852.733C273.417,863.933,273.417,874.467,273.417,879.733L273.417,885" id="L_Revision_Merge_0" class="edge-thickness-normal edge-pattern-solid edge-thickness-normal edge-pattern-solid flowchart-link" style=";" data-edge="true" data-et="edge" data-id="L_Revision_Merge_0" data-points="W3sieCI6MjczLjQxNjY1NTU0MDQ2NjMsInkiOjgxNy44MDAwMDY4NjY0NTUxfSx7IngiOjI3My40MTY2NTU1NDA0NjYzLCJ5Ijo4NTMuNDAwMDA3MjQ3OTI0OH0seyJ4IjoyNzMuNDE2NjU1NTQwNDY2MywieSI6ODg5LjAwMDAwNzYyOTM5NDV9XQ==" marker-end="url(#mermaid-_r_ej__flowchart-v2-pointEnd)"></path><path d="M331.239,770.6L341.448,766.433C351.657,762.267,372.074,753.933,382.283,741.667C392.492,729.4,392.492,713.2,392.492,697C392.492,680.8,392.492,664.6,388.295,652.776C384.098,640.952,375.705,633.503,371.508,629.779L367.311,626.055" id="L_Revision_Fix_0" class="edge-thickness-normal edge-pattern-solid edge-thickness-normal edge-pattern-solid flowchart-link" style=";" data-edge="true" data-et="edge" data-id="L_Revision_Fix_0" data-points="W3sieCI6MzMxLjIzOTA4NjY5MDc3MzgsInkiOjc3MC42MDAwMDYxMDM1MTU2fSx7IngiOjM5Mi40OTE2NjEwNzE3NzczNCwieSI6NzQ1LjYwMDAwNjEwMzUxNTZ9LHsieCI6MzkyLjQ5MTY2MTA3MTc3NzM0LCJ5Ijo2OTcuMDAwMDA1NzIyMDQ1OX0seyJ4IjozOTIuNDkxNjYxMDcxNzc3MzQsInkiOjY0OC40MDAwMDUzNDA1NzYyfSx7IngiOjM2NC4zMTk1MDU4MjYzMTU1LCJ5Ijo2MjMuNDAwMDA1MzQwNTc2Mn1d" marker-end="url(#mermaid-_r_ej__flowchart-v2-pointEnd)"></path><path d="M273.417,936.2L273.417,940.367C273.417,944.533,273.417,952.867,278.398,960.798C283.38,968.729,293.343,976.259,298.324,980.024L303.306,983.788" id="L_Merge_Test_0" class="edge-thickness-normal edge-pattern-solid edge-thickness-normal edge-pattern-solid flowchart-link" style=";" data-edge="true" data-et="edge" data-id="L_Merge_Test_0" data-points="W3sieCI6MjczLjQxNjY1NTU0MDQ2NjMsInkiOjkzNi4yMDAwMDgzOTIzMzR9LHsieCI6MjczLjQxNjY1NTU0MDQ2NjMsInkiOjk2MS4yMDAwMDgzOTIzMzR9LHsieCI6MzA2LjQ5NzA3NDY3NjAwOCwieSI6OTg2LjIwMDAwODM5MjMzNH1d" marker-end="url(#mermaid-_r_ej__flowchart-v2-pointEnd)"></path><path d="M337.725,1033.4L337.725,1039.333C337.725,1045.267,337.725,1057.133,337.725,1068.333C337.725,1079.533,337.725,1090.067,337.725,1095.333L337.725,1100.6" id="L_Test_Cerrar_0" class="edge-thickness-normal edge-pattern-solid edge-thickness-normal edge-pattern-solid flowchart-link" style=";" data-edge="true" data-et="edge" data-id="L_Test_Cerrar_0" data-points="W3sieCI6MzM3LjcyNDk5MDg0NDcyNjU2LCJ5IjoxMDMzLjQwMDAwOTE1NTI3MzR9LHsieCI6MzM3LjcyNDk5MDg0NDcyNjU2LCJ5IjoxMDY5LjAwMDAwOTUzNjc0MzJ9LHsieCI6MzM3LjcyNDk5MDg0NDcyNjU2LCJ5IjoxMTA0LjYwMDAwOTkxODIxM31d" marker-end="url(#mermaid-_r_ej__flowchart-v2-pointEnd)"></path><path d="M393.864,986.2L403.776,982.033C413.687,977.867,433.51,969.533,443.422,957.267C453.333,945,453.333,928.8,453.333,910.833C453.333,892.867,453.333,873.133,453.333,853.4C453.333,833.667,453.333,813.933,453.333,795.967C453.333,778,453.333,761.8,453.333,745.6C453.333,729.4,453.333,713.2,453.333,697C453.333,680.8,453.333,664.6,444.036,652.592C434.739,640.583,416.145,632.767,406.848,628.858L397.551,624.95" id="L_Test_Fix_0" class="edge-thickness-normal edge-pattern-solid edge-thickness-normal edge-pattern-solid flowchart-link" style=";" data-edge="true" data-et="edge" data-id="L_Test_Fix_0" data-points="W3sieCI6MzkzLjg2NDAxNzQ5ODEwNTEsInkiOjk4Ni4yMDAwMDgzOTIzMzR9LHsieCI6NDUzLjMzMzMyNDQzMjM3MzA1LCJ5Ijo5NjEuMjAwMDA4MzkyMzM0fSx7IngiOjQ1My4zMzMzMjQ0MzIzNzMwNSwieSI6OTEyLjYwMDAwODAxMDg2NDN9LHsieCI6NDUzLjMzMzMyNDQzMjM3MzA1LCJ5Ijo4NTMuNDAwMDA3MjQ3OTI0OH0seyJ4Ijo0NTMuMzMzMzI0NDMyMzczMDUsInkiOjc5NC4yMDAwMDY0ODQ5ODU0fSx7IngiOjQ1My4zMzMzMjQ0MzIzNzMwNSwieSI6NzQ1LjYwMDAwNjEwMzUxNTZ9LHsieCI6NDUzLjMzMzMyNDQzMjM3MzA1LCJ5Ijo2OTcuMDAwMDA1NzIyMDQ1OX0seyJ4Ijo0NTMuMzMzMzI0NDMyMzczMDUsInkiOjY0OC40MDAwMDUzNDA1NzYyfSx7IngiOjM5My44NjQwMTc0OTgxMDUxLCJ5Ijo2MjMuNDAwMDA1MzQwNTc2Mn1d" marker-end="url(#mermaid-_r_ej__flowchart-v2-pointEnd)"></path></g><g class="edgeLabels"><g><rect class="background" style="stroke: none"></rect></g><g><rect class="background" style="stroke: none"></rect></g><g><rect class="background" style="stroke: none"></rect></g><g><rect class="background" style="stroke: none"></rect></g><g><rect class="background" style="stroke: none"></rect></g><g><rect class="background" style="stroke: none"></rect></g><g><rect class="background" style="stroke: none"></rect></g><g><rect class="background" style="stroke: none"></rect></g><g><rect class="background" style="stroke: none"></rect></g><g><rect class="background" style="stroke: none"></rect></g><g><rect class="background" style="stroke: none"></rect></g><g><rect class="background" style="stroke: none"></rect></g><g><rect class="background" style="stroke: none"></rect></g><g><rect class="background" style="stroke: none"></rect></g><g><rect class="background" style="stroke: none"></rect></g><g><rect class="background" style="stroke: none"></rect></g><g><rect class="background" style="stroke: none"></rect></g><g class="edgeLabel"><g class="label" data-id="L_Bug_Registro_0" transform="translate(0, 0)"><text y="-10.1"><tspan class="text-outer-tspan" x="0" y="-0.1em" dy="1.1em"></tspan></text></g></g><g class="edgeLabel"><g class="label" data-id="L_Registro_Etiqueta_0" transform="translate(0, 0)"><text y="-10.1"><tspan class="text-outer-tspan" x="0" y="-0.1em" dy="1.1em"></tspan></text></g></g><g class="edgeLabel"><g class="label" data-id="L_Etiqueta_Critico_0" transform="translate(0, 0)"><text y="-10.1"><tspan class="text-outer-tspan" x="0" y="-0.1em" dy="1.1em"></tspan></text></g></g><g class="edgeLabel"><g class="label" data-id="L_Etiqueta_Alto_0" transform="translate(0, 0)"><text y="-10.1"><tspan class="text-outer-tspan" x="0" y="-0.1em" dy="1.1em"></tspan></text></g></g><g class="edgeLabel"><g class="label" data-id="L_Etiqueta_Medio_0" transform="translate(0, 0)"><text y="-10.1"><tspan class="text-outer-tspan" x="0" y="-0.1em" dy="1.1em"></tspan></text></g></g><g class="edgeLabel"><g class="label" data-id="L_Etiqueta_Bajo_0" transform="translate(0, 0)"><text y="-10.1"><tspan class="text-outer-tspan" x="0" y="-0.1em" dy="1.1em"></tspan></text></g></g><g class="edgeLabel"><g class="label" data-id="L_Critico_Reunion_0" transform="translate(0, 0)"><text y="-10.1"><tspan class="text-outer-tspan" x="0" y="-0.1em" dy="1.1em"></tspan></text></g></g><g class="edgeLabel"><g class="label" data-id="L_Alto_Sprint_0" transform="translate(0, 0)"><text y="-10.1"><tspan class="text-outer-tspan" x="0" y="-0.1em" dy="1.1em"></tspan></text></g></g><g class="edgeLabel"><g class="label" data-id="L_Medio_Backlog_0" transform="translate(0, 0)"><text y="-10.1"><tspan class="text-outer-tspan" x="0" y="-0.1em" dy="1.1em"></tspan></text></g></g><g class="edgeLabel"><g class="label" data-id="L_Bajo_Futuro_0" transform="translate(0, 0)"><text y="-10.1"><tspan class="text-outer-tspan" x="0" y="-0.1em" dy="1.1em"></tspan></text></g></g><g class="edgeLabel"><g class="label" data-id="L_Reunion_Asignar_0" transform="translate(0, 0)"><text y="-10.1"><tspan class="text-outer-tspan" x="0" y="-0.1em" dy="1.1em"></tspan></text></g></g><g class="edgeLabel"><g class="label" data-id="L_Sprint_Asignar_0" transform="translate(0, 0)"><text y="-10.1"><tspan class="text-outer-tspan" x="0" y="-0.1em" dy="1.1em"></tspan></text></g></g><g class="edgeLabel"><g class="label" data-id="L_Backlog_Asignar_0" transform="translate(0, 0)"><text y="-10.1"><tspan class="text-outer-tspan" x="0" y="-0.1em" dy="1.1em"></tspan></text></g></g><g class="edgeLabel"><g class="label" data-id="L_Asignar_Fix_0" transform="translate(0, 0)"><text y="-10.1"><tspan class="text-outer-tspan" x="0" y="-0.1em" dy="1.1em"></tspan></text></g></g><g class="edgeLabel"><g class="label" data-id="L_Fix_PR_0" transform="translate(0, 0)"><text y="-10.1"><tspan class="text-outer-tspan" x="0" y="-0.1em" dy="1.1em"></tspan></text></g></g><g class="edgeLabel"><g class="label" data-id="L_PR_Revision_0" transform="translate(0, 0)"><text y="-10.1"><tspan class="text-outer-tspan" x="0" y="-0.1em" dy="1.1em"></tspan></text></g></g><g class="edgeLabel" transform="translate(273.4166555404663, 853.4000072479248)"><g class="label" data-id="L_Revision_Merge_0" transform="translate(-35.983333587646484, -10.600000381469727)"><g><rect class="background" style="" x="-2" y="-0.3333324193954468" width="71.96666717529297" height="21.200000762939453"></rect><text y="-10.1" style=""><tspan class="text-outer-tspan" x="0" y="-0.1em" dy="1.1em"><tspan font-style="normal" class="text-inner-tspan" font-weight="normal">Aprobado</tspan></tspan></text></g></g></g><g class="edgeLabel" transform="translate(392.49166107177734, 697.0000057220459)"><g class="label" data-id="L_Revision_Fix_0" transform="translate(-39.983333587646484, -10.600000381469727)"><g><rect class="background" style="" x="-2" y="-0.3333324193954468" width="79.96666717529297" height="21.200000762939453"></rect><text y="-10.1" style=""><tspan class="text-outer-tspan" x="0" y="-0.1em" dy="1.1em"><tspan font-style="normal" class="text-inner-tspan" font-weight="normal">Rechazado</tspan></tspan></text></g></g></g><g class="edgeLabel"><g class="label" data-id="L_Merge_Test_0" transform="translate(0, 0)"><text y="-10.1"><tspan class="text-outer-tspan" x="0" y="-0.1em" dy="1.1em"></tspan></text></g></g><g class="edgeLabel" transform="translate(337.72499084472656, 1069.0000095367432)"><g class="label" data-id="L_Test_Cerrar_0" transform="translate(-12, -10.600000381469727)"><g><rect class="background" style="" x="-2" y="-0.3333324193954468" width="24" height="21.200000762939453"></rect><text y="-10.1" style=""><tspan class="text-outer-tspan" x="0" y="-0.1em" dy="1.1em"><tspan font-style="normal" class="text-inner-tspan" font-weight="normal">OK</tspan></tspan></text></g></g></g><g class="edgeLabel" transform="translate(453.33332443237305, 794.2000064849854)"><g class="label" data-id="L_Test_Fix_0" transform="translate(-19.316667556762695, -10.600000381469727)"><g><rect class="background" style="" x="-2" y="-0.3333324193954468" width="38.63333511352539" height="21.200000762939453"></rect><text y="-10.1" style=""><tspan class="text-outer-tspan" x="0" y="-0.1em" dy="1.1em"><tspan font-style="normal" class="text-inner-tspan" font-weight="normal">Falla</tspan></tspan></text></g></g></g></g><g class="nodes"><g class="node default" id="flowchart-Bug-0" transform="translate(520.1041564941406, 24.100000381469727)"><g class="basic label-container outer-path"><path d="M-47.20000123977661 -16.100000381469727 C-11.787659628946173 -16.100000381469727, 23.624681981884265 -16.100000381469727, 47.20000123977661 -16.100000381469727 C47.20000123977661 -16.100000381469727, 47.20000123977661 -16.100000381469727, 47.20000123977661 -16.100000381469727 C47.40762710179409 -16.09334222419405, 47.61525296381157 -16.086684066918373, 48.23153180590694 -16.06692120396637 C48.5934161427054 -16.032010657225015, 48.95530047950386 -15.99710011048366, 49.25882359167842 -15.96781960089213 C49.6088336399512 -15.911232690655849, 49.95884368822398 -15.85464578041957, 50.27765523478993 -15.803102801991255 C50.54204022458366 -15.742758653344131, 50.806425214377384 -15.682414504697007, 51.28384013748122 -15.573447663922082 C51.63425386706208 -15.469446708341685, 51.98466759664293 -15.365445752761289, 52.27324367016115 -15.279797888907801 C52.64543255392648 -15.142828939205831, 53.017621437691815 -15.005859989503863, 53.24180016148753 -14.923360146861633 C53.555177913768055 -14.784637111947779, 53.86855566604858 -14.645914077033924, 54.185529605082806 -14.505599116921296 C54.52223085423522 -14.329942290905926, 54.85893210338762 -14.154285464890558, 55.10055401423389 -14.02823146876828 C55.41458715418911 -13.837862733863856, 55.72862029414432 -13.647493998959431, 55.983113357371494 -13.493218808463876 C56.21727042665443 -13.329880973428258, 56.45142749593736 -13.16654313839264, 56.82958100884625 -12.902759617789137 C57.1480110620993 -12.648820124099421, 57.46644111535235 -12.394880630409705, 57.63647865151151 -12.259280220211647 C57.8277456813827 -12.085576564330925, 58.01901271125389 -11.911872908450205, 58.40049056987458 -11.565424810601945 C58.66445365347972 -11.29286125500743, 58.92841673708486 -11.020297699412916, 59.11847727508283 -10.82404458966964 C59.28716280623434 -10.625896966300443, 59.455848337385845 -10.427749342931248, 59.78748840575693 -10.038186047768095 C59.929496300376535 -9.847908406163167, 60.07150419499614 -9.657630764558238, 60.40477485165848 -9.21107844621212 C60.57621366240823 -8.947702395133929, 60.74765247315798 -8.684326344055737, 60.96780005037376 -8.346120547550527 C61.12545409173653 -8.06618983290814, 61.283108133099304 -7.786259118265756, 61.47425041059271 -7.4468666493218025 C61.58441901608537 -7.218099182785759, 61.69458762157802 -6.989331716249715, 61.92204481915192 -6.5170119786831355 C62.059488738055805 -6.177522841693153, 62.19693265695969 -5.838033704703171, 62.309343192775046 -5.560377507929373 C62.41623700841042 -5.238430366452266, 62.52313082404579 -4.916483224975159, 62.63455403936961 -4.580894253298288 C62.71526273245401 -4.273117027198625, 62.795971425538404 -3.965339801098962, 62.89634099780945 -3.582587121581663 C62.96044726675513 -3.25341497941036, 63.024553535700804 -2.9242428372390568, 63.09362832932922 -2.56955837091994 C63.12736543370057 -2.307900051560571, 63.161102538071916 -2.046241732201202, 63.2256053379657 -1.5459707537435567 C63.24598738838018 -1.2285038664431727, 63.26636943879465 -0.9110369791427888, 63.29172970188142 -0.5160304111303547 C63.29172970188142 -0.1245969696195589, 63.29172970188142 0.26683647189123694, 63.29172970188142 0.5160304111303508 C63.27335260618623 0.8022685103076903, 63.25497551049103 1.0885066094850298, 63.2256053379657 1.5459707537435456 C63.176919246455896 1.9235704653373966, 63.12823315494609 2.3011701769312474, 63.09362832932922 2.569558370919929 C63.02862622446911 2.9033304411768834, 62.963624119608994 3.237102511433838, 62.89634099780945 3.5825871215816596 C62.83057329057509 3.833387893170903, 62.76480558334073 4.084188664760147, 62.63455403936961 4.580894253298277 C62.509379673888695 4.957899498300074, 62.384205308407786 5.3349047433018715, 62.309343192775046 5.5603775079293625 C62.20535470335137 5.8172310872865225, 62.10136621392769 6.074084666643683, 61.92204481915193 6.517011978683131 C61.82759700304266 6.713134889693544, 61.7331491869334 6.909257800703956, 61.47425041059271 7.446866649321799 C61.3246675737566 7.71246612302901, 61.175084736920496 7.978065596736222, 60.96780005037376 8.346120547550523 C60.8452457139439 8.534396918754014, 60.722691377514046 8.722673289957504, 60.40477485165849 9.211078446212111 C60.255190536999955 9.411507800443134, 60.10560622234143 9.611937154674155, 59.78748840575693 10.038186047768091 C59.550249463049305 10.316860409150724, 59.313010520341685 10.595534770533359, 59.11847727508284 10.824044589669631 C58.84335541131651 11.108130501933461, 58.56823354755018 11.392216414197291, 58.40049056987458 11.565424810601941 C58.23491421382879 11.715796876252416, 58.06933785778299 11.86616894190289, 57.636478651511524 12.259280220211636 C57.44892049134047 12.408852861815793, 57.26136233116942 12.55842550341995, 56.829581008846255 12.902759617789135 C56.51232879233411 13.124061030400899, 56.19507657582197 13.345362443012663, 55.9831133573715 13.49321880846387 C55.65417251478861 13.692624680308576, 55.325231672205724 13.892030552153281, 55.1005540142339 14.028231468768277 C54.89807462821222 14.13386483476155, 54.69559524219055 14.239498200754822, 54.18552960508281 14.505599116921294 C53.956655520853715 14.606914884701032, 53.72778143662461 14.708230652480772, 53.24180016148755 14.923360146861631 C52.92404399150259 15.040297354721929, 52.60628782151763 15.157234562582229, 52.27324367016116 15.279797888907797 C51.96816192218896 15.370344550299174, 51.66308017421676 15.46089121169055, 51.28384013748124 15.573447663922078 C51.03133833648762 15.631079552270633, 50.778836535493994 15.688711440619187, 50.27765523478994 15.803102801991255 C49.97324901528873 15.85231683885472, 49.668842795787526 15.901530875718187, 49.258823591678436 15.967819600892128 C49.036993026859 15.989219328689972, 48.815162462039574 16.010619056487815, 48.23153180590694 16.06692120396637 C47.98774982983474 16.074738817446175, 47.743967853762534 16.08255643092598, 47.20000123977661 16.100000381469727 C47.20000123977661 16.100000381469727, 47.20000123977661 16.100000381469727, 47.20000123977661 16.100000381469727 C16.517530743302768 16.100000381469727, -14.164939753171076 16.100000381469727, -47.20000123977661 16.100000381469727 C-47.58139918073524 16.08776969184924, -47.962797121693875 16.07553900222875, -48.23153180590693 16.06692120396637 C-48.56262569365512 16.034980974813962, -48.89371958140332 16.00304074566155, -49.25882359167843 15.967819600892128 C-49.56807541389535 15.917822164559794, -49.87732723611228 15.867824728227461, -50.27765523478993 15.803102801991255 C-50.65375083632792 15.71726143519337, -51.02984643786592 15.631420068395485, -51.28384013748122 15.573447663922082 C-51.595789884250216 15.48086261653868, -51.90773963101921 15.388277569155278, -52.27324367016114 15.279797888907805 C-52.583110201159364 15.165764141125646, -52.89297673215759 15.051730393343487, -53.24180016148754 14.923360146861633 C-53.60594694709581 14.76216316690345, -53.97009373270408 14.600966186945268, -54.185529605082806 14.505599116921298 C-54.54364457394176 14.318770767051163, -54.901759542800725 14.131942417181028, -55.10055401423389 14.02823146876828 C-55.33938265283951 13.883452144532688, -55.57821129144512 13.738672820297097, -55.98311335737149 13.493218808463881 C-56.30463548854244 13.268938888227758, -56.62615761971338 13.044658967991637, -56.82958100884625 12.902759617789139 C-57.08181711162711 12.701608038105995, -57.33405321440797 12.500456458422851, -57.63647865151151 12.25928022021165 C-57.82613339864368 12.087040796855849, -58.015788145775836 11.914801373500046, -58.40049056987456 11.56542481060195 C-58.60622042257572 11.352991846952982, -58.81195027527687 11.140558883304012, -59.11847727508284 10.824044589669636 C-59.3025194924822 10.60785812881351, -59.48656170988156 10.391671667957384, -59.78748840575693 10.038186047768097 C-59.947512328617826 9.82376856961378, -60.10753625147872 9.609351091459462, -60.40477485165848 9.211078446212122 C-60.547603626721475 8.991655092819066, -60.69043240178447 8.772231739426008, -60.967800050373754 8.346120547550534 C-61.08276044379274 8.141996728032971, -61.19772083721174 7.937872908515411, -61.4742504105927 7.446866649321804 C-61.619513544479716 7.1452246436722735, -61.76477667836673 6.843582638022743, -61.92204481915192 6.517011978683137 C-62.021499521897034 6.271356940076833, -62.120954224642155 6.025701901470529, -62.309343192775046 5.560377507929375 C-62.41277403025719 5.248860304899162, -62.516204867739326 4.93734310186895, -62.63455403936961 4.5808942532982835 C-62.72263654780163 4.244997473446358, -62.810719056233644 3.909100693594432, -62.89634099780945 3.5825871215816654 C-62.93629828258788 3.3774149092195738, -62.97625556736631 3.172242696857482, -63.09362832932922 2.5695583709199417 C-63.14536570532023 2.168293499434167, -63.19710308131124 1.7670286279483922, -63.2256053379657 1.5459707537435659 C-63.25153244013505 1.1421352094757686, -63.2774595423044 0.7382996652079713, -63.29172970188142 0.5160304111303567 C-63.29172970188142 0.2711824189416071, -63.29172970188142 0.02633442675285741, -63.29172970188142 -0.5160304111303489 C-63.274014108621486 -0.7919650759234058, -63.25629851536154 -1.0678997407164625, -63.2256053379657 -1.5459707537435436 C-63.17321771584344 -1.9522788058176994, -63.12083009372118 -2.358586857891855, -63.09362832932922 -2.569558370919934 C-63.04582507170772 -2.815017995584291, -62.99802181408621 -3.0604776202486477, -62.89634099780945 -3.5825871215816574 C-62.82771190097806 -3.8442996118384936, -62.759082804146665 -4.10601210209533, -62.63455403936962 -4.580894253298275 C-62.550485894252546 -4.834094111950968, -62.46641774913547 -5.08729397060366, -62.30934319277505 -5.5603775079293545 C-62.19709988515951 -5.837620647816477, -62.08485657754396 -6.114863787703601, -61.92204481915193 -6.51701197868313 C-61.79149298283021 -6.7881056601669805, -61.6609411465085 -7.05919934165083, -61.47425041059271 -7.446866649321797 C-61.31070192605457 -7.737263544699153, -61.14715344151642 -8.02766044007651, -60.96780005037376 -8.346120547550528 C-60.84314261718923 -8.537627840129748, -60.7184851840047 -8.729135132708969, -60.40477485165849 -9.211078446212117 C-60.24660350104768 -9.423013646324126, -60.088432150436866 -9.634948846436133, -59.78748840575693 -10.038186047768091 C-59.53481624518053 -10.334989145034367, -59.28214408460413 -10.63179224230064, -59.11847727508284 -10.82404458966963 C-58.95664014797808 -10.991154710480535, -58.794803020873324 -11.158264831291442, -58.400490569874584 -11.565424810601936 C-58.19949575227023 -11.747962985918752, -57.998500934665884 -11.930501161235567, -57.636478651511524 -12.259280220211634 C-57.33505536137156 -12.499657272887639, -57.033632071231594 -12.740034325563643, -56.829581008846255 -12.902759617789133 C-56.58768067841156 -13.071498816603848, -56.34578034797686 -13.240238015418562, -55.98311335737151 -13.493218808463869 C-55.67101100302622 -13.682417089785, -55.35890864868093 -13.87161537110613, -55.1005540142339 -14.028231468768276 C-54.907337997425515 -14.129032140976447, -54.71412198061712 -14.229832813184618, -54.18552960508281 -14.505599116921294 C-53.86444020030384 -14.64773587163817, -53.543350795524866 -14.789872626355045, -53.24180016148755 -14.92336014686163 C-52.98685000774701 -15.017184160171533, -52.73189985400648 -15.111008173481435, -52.273243670161165 -15.279797888907797 C-51.92428687764829 -15.383366433214036, -51.57533008513542 -15.486934977520274, -51.28384013748124 -15.573447663922076 C-51.01387082236552 -15.635066398382818, -50.743901507249795 -15.69668513284356, -50.27765523478994 -15.803102801991253 C-49.92257417725524 -15.860509553678737, -49.567493119720545 -15.91791630536622, -49.258823591678436 -15.967819600892128 C-48.99354424965774 -15.993410779971777, -48.72826490763705 -16.019001959051426, -48.23153180590694 -16.06692120396637 C-48.01443752152101 -16.073882995118236, -47.79734323713509 -16.080844786270102, -47.20000123977662 -16.100000381469727 C-47.20000123977662 -16.100000381469727, -47.20000123977661 -16.100000381469727, -47.20000123977661 -16.100000381469727" stroke="none" stroke-width="0" fill="#1f2020" style=""></path><path d="M-47.20000123977661 -16.100000381469727 C-19.550153592312963 -16.100000381469727, 8.099694055150685 -16.100000381469727, 47.20000123977661 -16.100000381469727 M-47.20000123977661 -16.100000381469727 C-27.2385245517211 -16.100000381469727, -7.277047863665587 -16.100000381469727, 47.20000123977661 -16.100000381469727 M47.20000123977661 -16.100000381469727 C47.20000123977661 -16.100000381469727, 47.20000123977661 -16.100000381469727, 47.20000123977661 -16.100000381469727 M47.20000123977661 -16.100000381469727 C47.20000123977661 -16.100000381469727, 47.20000123977661 -16.100000381469727, 47.20000123977661 -16.100000381469727 M47.20000123977661 -16.100000381469727 C47.53440736721438 -16.08927662784484, 47.868813494652144 -16.078552874219948, 48.23153180590694 -16.06692120396637 M47.20000123977661 -16.100000381469727 C47.57813188802857 -16.087874467566945, 47.95626253628054 -16.07574855366416, 48.23153180590694 -16.06692120396637 M48.23153180590694 -16.06692120396637 C48.506145149591006 -16.040429584972035, 48.78075849327507 -16.0139379659777, 49.25882359167842 -15.96781960089213 M48.23153180590694 -16.06692120396637 C48.60558421491439 -16.03083681793326, 48.979636623921834 -15.994752431900153, 49.25882359167842 -15.96781960089213 M49.25882359167842 -15.96781960089213 C49.639361634397225 -15.906297161261948, 50.01989967711604 -15.844774721631767, 50.27765523478993 -15.803102801991255 M49.25882359167842 -15.96781960089213 C49.58321947047237 -15.915373790936336, 49.907615349266315 -15.862927980980542, 50.27765523478993 -15.803102801991255 M50.27765523478993 -15.803102801991255 C50.51921124871014 -15.747969218114271, 50.76076726263036 -15.692835634237285, 51.28384013748122 -15.573447663922082 M50.27765523478993 -15.803102801991255 C50.556445409103674 -15.739470763980052, 50.83523558341741 -15.67583872596885, 51.28384013748122 -15.573447663922082 M51.28384013748122 -15.573447663922082 C51.53518237742948 -15.498850606427778, 51.786524617377744 -15.424253548933475, 52.27324367016115 -15.279797888907801 M51.28384013748122 -15.573447663922082 C51.49089848785336 -15.511993832403093, 51.697956838225494 -15.450540000884102, 52.27324367016115 -15.279797888907801 M52.27324367016115 -15.279797888907801 C52.65358674644004 -15.139828120984314, 53.03392982271893 -14.999858353060825, 53.24180016148753 -14.923360146861633 M52.27324367016115 -15.279797888907801 C52.6488567191271 -15.141568814759369, 53.02446976809305 -15.003339740610937, 53.24180016148753 -14.923360146861633 M53.24180016148753 -14.923360146861633 C53.49067064010215 -14.813192568459387, 53.73954111871678 -14.703024990057143, 54.185529605082806 -14.505599116921296 M53.24180016148753 -14.923360146861633 C53.52585887320746 -14.797615781485515, 53.8099175849274 -14.671871416109397, 54.185529605082806 -14.505599116921296 M54.185529605082806 -14.505599116921296 C54.51912770686883 -14.33156120089931, 54.852725808654846 -14.157523284877325, 55.10055401423389 -14.02823146876828 M54.185529605082806 -14.505599116921296 C54.38168251570487 -14.4032662690917, 54.57783542632693 -14.300933421262107, 55.10055401423389 -14.02823146876828 M55.10055401423389 -14.02823146876828 C55.352996235197125 -13.87519951090521, 55.605438456160364 -13.722167553042139, 55.983113357371494 -13.493218808463876 M55.10055401423389 -14.02823146876828 C55.38571005455745 -13.85536820136124, 55.670866094881006 -13.682504933954199, 55.983113357371494 -13.493218808463876 M55.983113357371494 -13.493218808463876 C56.25166196527331 -13.305890924873438, 56.52021057317513 -13.118563041283, 56.82958100884625 -12.902759617789137 M55.983113357371494 -13.493218808463876 C56.231749137990846 -13.319781251173286, 56.4803849186102 -13.146343693882695, 56.82958100884625 -12.902759617789137 M56.82958100884625 -12.902759617789137 C57.148400219348105 -12.648509781549407, 57.46721942984996 -12.394259945309678, 57.63647865151151 -12.259280220211647 M56.82958100884625 -12.902759617789137 C57.0581873782804 -12.720452121636379, 57.286793747714555 -12.538144625483623, 57.63647865151151 -12.259280220211647 M57.63647865151151 -12.259280220211647 C57.807104192355816 -12.104322618521273, 57.97772973320012 -11.9493650168309, 58.40049056987458 -11.565424810601945 M57.63647865151151 -12.259280220211647 C57.81679493205387 -12.095521745130423, 57.99711121259623 -11.9317632700492, 58.40049056987458 -11.565424810601945 M58.40049056987458 -11.565424810601945 C58.57398315210034 -11.38627947544794, 58.7474757343261 -11.207134140293935, 59.11847727508283 -10.82404458966964 M58.40049056987458 -11.565424810601945 C58.645813842264786 -11.31210839044381, 58.891137114654995 -11.058791970285673, 59.11847727508283 -10.82404458966964 M59.11847727508283 -10.82404458966964 C59.312250056954696 -10.596428054099311, 59.50602283882655 -10.368811518528984, 59.78748840575693 -10.038186047768095 M59.11847727508283 -10.82404458966964 C59.308083846818114 -10.601321921589806, 59.497690418553404 -10.37859925350997, 59.78748840575693 -10.038186047768095 M59.78748840575693 -10.038186047768095 C59.95285402680993 -9.816611180675075, 60.11821964786292 -9.595036313582055, 60.40477485165848 -9.21107844621212 M59.78748840575693 -10.038186047768095 C60.00288004414302 -9.749580874912668, 60.21827168252911 -9.460975702057242, 60.40477485165848 -9.21107844621212 M60.40477485165848 -9.21107844621212 C60.61546920607557 -8.887395338471451, 60.82616356049267 -8.563712230730784, 60.96780005037376 -8.346120547550527 M60.40477485165848 -9.21107844621212 C60.606527498799146 -8.901132202032649, 60.808280145939804 -8.591185957853178, 60.96780005037376 -8.346120547550527 M60.96780005037376 -8.346120547550527 C61.125171677540244 -8.066691287911183, 61.282543304706735 -7.787262028271841, 61.47425041059271 -7.4468666493218025 M60.96780005037376 -8.346120547550527 C61.12738448958413 -8.062762216055747, 61.2869689287945 -7.779403884560967, 61.47425041059271 -7.4468666493218025 M61.47425041059271 -7.4468666493218025 C61.6172253329004 -7.149976163976626, 61.760200255208076 -6.853085678631448, 61.92204481915192 -6.5170119786831355 M61.47425041059271 -7.4468666493218025 C61.57264754448209 -7.24254289543911, 61.67104467837147 -7.038219141556417, 61.92204481915192 -6.5170119786831355 M61.92204481915192 -6.5170119786831355 C62.032379440048175 -6.244483331894611, 62.142714060944435 -5.971954685106087, 62.309343192775046 -5.560377507929373 M61.92204481915192 -6.5170119786831355 C62.05494252475084 -6.188752076451464, 62.187840230349764 -5.860492174219792, 62.309343192775046 -5.560377507929373 M62.309343192775046 -5.560377507929373 C62.4196545959344 -5.228137137348661, 62.529965999093754 -4.895896766767949, 62.63455403936961 -4.580894253298288 M62.309343192775046 -5.560377507929373 C62.38372668628866 -5.3363462768666, 62.458110179802276 -5.112315045803826, 62.63455403936961 -4.580894253298288 M62.63455403936961 -4.580894253298288 C62.718611001919925 -4.260348624575927, 62.80266796447024 -3.9398029958535647, 62.89634099780945 -3.582587121581663 M62.63455403936961 -4.580894253298288 C62.736067420284364 -4.1937797356927335, 62.83758080119912 -3.80666521808718, 62.89634099780945 -3.582587121581663 M62.89634099780945 -3.582587121581663 C62.94105554641047 -3.3529873649386417, 62.98577009501148 -3.1233876082956202, 63.09362832932922 -2.56955837091994 M62.89634099780945 -3.582587121581663 C62.97366438929382 -3.1855478486140143, 63.050987780778186 -2.7885085756463655, 63.09362832932922 -2.56955837091994 M63.09362832932922 -2.56955837091994 C63.13736460798962 -2.2303484303350096, 63.181100886650015 -1.8911384897500796, 63.2256053379657 -1.5459707537435567 M63.09362832932922 -2.56955837091994 C63.13879263797261 -2.2192729117833587, 63.18395694661599 -1.8689874526467773, 63.2256053379657 -1.5459707537435567 M63.2256053379657 -1.5459707537435567 C63.24770439162707 -1.2017601549327206, 63.26980344528844 -0.8575495561218842, 63.29172970188142 -0.5160304111303547 M63.2256053379657 -1.5459707537435567 C63.24484984462781 -1.246222028595123, 63.264094351289906 -0.9464733034466892, 63.29172970188142 -0.5160304111303547 M63.29172970188142 -0.5160304111303547 C63.29172970188142 -0.28797075207710954, 63.29172970188142 -0.059911093023864326, 63.29172970188142 0.5160304111303508 M63.29172970188142 -0.5160304111303547 C63.29172970188142 -0.13131826035292227, 63.29172970188142 0.2533938904245102, 63.29172970188142 0.5160304111303508 M63.29172970188142 0.5160304111303508 C63.27735557147451 0.7399190948072554, 63.262981441067595 0.96380777848416, 63.2256053379657 1.5459707537435456 M63.29172970188142 0.5160304111303508 C63.26582294333458 0.9195490870565439, 63.23991618478774 1.3230677629827372, 63.2256053379657 1.5459707537435456 M63.2256053379657 1.5459707537435456 C63.18839017277366 1.8346042260074693, 63.15117500758161 2.1232376982713927, 63.09362832932922 2.569558370919929 M63.2256053379657 1.5459707537435456 C63.1847916499516 1.862513658406637, 63.143977961937495 2.1790565630697287, 63.09362832932922 2.569558370919929 M63.09362832932922 2.569558370919929 C63.024557008684546 2.924225004201542, 62.95548568803987 3.278891637483155, 62.89634099780945 3.5825871215816596 M63.09362832932922 2.569558370919929 C63.045365855679044 2.8173759728361563, 62.997103382028875 3.065193574752384, 62.89634099780945 3.5825871215816596 M62.89634099780945 3.5825871215816596 C62.81501897282836 3.892703248023128, 62.73369694784728 4.202819374464596, 62.63455403936961 4.580894253298277 M62.89634099780945 3.5825871215816596 C62.81060416825423 3.9095388112527076, 62.724867338699006 4.236490500923756, 62.63455403936961 4.580894253298277 M62.63455403936961 4.580894253298277 C62.52567499034016 4.908820601454366, 62.4167959413107 5.236746949610454, 62.309343192775046 5.5603775079293625 M62.63455403936961 4.580894253298277 C62.51246767896763 4.94859891900911, 62.39038131856566 5.316303584719944, 62.309343192775046 5.5603775079293625 M62.309343192775046 5.5603775079293625 C62.1657623090087 5.915025066779794, 62.022181425242344 6.269672625630226, 61.92204481915193 6.517011978683131 M62.309343192775046 5.5603775079293625 C62.20203799085474 5.825423431277457, 62.094732788934444 6.090469354625553, 61.92204481915193 6.517011978683131 M61.92204481915193 6.517011978683131 C61.75245537237012 6.869168093558423, 61.58286592558831 7.221324208433716, 61.47425041059271 7.446866649321799 M61.92204481915193 6.517011978683131 C61.7775396080475 6.817080141457688, 61.63303439694306 7.117148304232245, 61.47425041059271 7.446866649321799 M61.47425041059271 7.446866649321799 C61.33636475889185 7.69169658635295, 61.198479107190984 7.936526523384099, 60.96780005037376 8.346120547550523 M61.47425041059271 7.446866649321799 C61.28215721463854 7.7879475702837775, 61.090064018684366 8.129028491245755, 60.96780005037376 8.346120547550523 M60.96780005037376 8.346120547550523 C60.7742247368566 8.64350421136276, 60.580649423339445 8.940887875174997, 60.40477485165849 9.211078446212111 M60.96780005037376 8.346120547550523 C60.83872539223429 8.544413883851515, 60.709650734094815 8.742707220152509, 60.40477485165849 9.211078446212111 M60.40477485165849 9.211078446212111 C60.19816138130997 9.487921673604752, 59.99154791096145 9.764764900997394, 59.78748840575693 10.038186047768091 M60.40477485165849 9.211078446212111 C60.211733264098235 9.469736587092434, 60.01869167653798 9.72839472797276, 59.78748840575693 10.038186047768091 M59.78748840575693 10.038186047768091 C59.5431023727028 10.325255788152695, 59.29871633964867 10.612325528537298, 59.11847727508284 10.824044589669631 M59.78748840575693 10.038186047768091 C59.64178300615243 10.209339901015651, 59.49607760654792 10.38049375426321, 59.11847727508284 10.824044589669631 M59.11847727508284 10.824044589669631 C58.93812492633071 11.01027319695942, 58.75777257757857 11.196501804249207, 58.40049056987458 11.565424810601941 M59.11847727508284 10.824044589669631 C58.885184248245615 11.064938793592779, 58.65189122140839 11.305832997515925, 58.40049056987458 11.565424810601941 M58.40049056987458 11.565424810601941 C58.19615889416283 11.750993432163472, 57.99182721845108 11.936562053725002, 57.636478651511524 12.259280220211636 M58.40049056987458 11.565424810601941 C58.146897972776 11.79573089759443, 57.89330537567743 12.026036984586916, 57.636478651511524 12.259280220211636 M57.636478651511524 12.259280220211636 C57.35014278750225 12.487625452041682, 57.06380692349298 12.715970683871728, 56.829581008846255 12.902759617789135 M57.636478651511524 12.259280220211636 C57.44724282188626 12.410190758560866, 57.25800699226101 12.561101296910094, 56.829581008846255 12.902759617789135 M56.829581008846255 12.902759617789135 C56.65128272719372 13.02713278066173, 56.47298444554118 13.151505943534328, 55.9831133573715 13.49321880846387 M56.829581008846255 12.902759617789135 C56.4949806217429 13.13616236321513, 56.16038023463954 13.369565108641124, 55.9831133573715 13.49321880846387 M55.9831133573715 13.49321880846387 C55.65880794525954 13.689814655116287, 55.334502533147585 13.886410501768701, 55.1005540142339 14.028231468768277 M55.9831133573715 13.49321880846387 C55.76053439986381 13.628147480524175, 55.53795544235612 13.76307615258448, 55.1005540142339 14.028231468768277 M55.1005540142339 14.028231468768277 C54.89406665797712 14.135955790265974, 54.68757930172035 14.243680111763672, 54.18552960508281 14.505599116921294 M55.1005540142339 14.028231468768277 C54.88085423762233 14.14284870150211, 54.66115446101076 14.257465934235945, 54.18552960508281 14.505599116921294 M54.18552960508281 14.505599116921294 C53.96990079572296 14.601051594423538, 53.7542719863631 14.696504071925782, 53.24180016148755 14.923360146861631 M54.18552960508281 14.505599116921294 C53.93658832980391 14.615798034906708, 53.68764705452501 14.725996952892121, 53.24180016148755 14.923360146861631 M53.24180016148755 14.923360146861631 C52.89701059312232 15.050245895219867, 52.55222102475708 15.177131643578102, 52.27324367016116 15.279797888907797 M53.24180016148755 14.923360146861631 C53.00577635804682 15.010219088307938, 52.7697525546061 15.097078029754245, 52.27324367016116 15.279797888907797 M52.27324367016116 15.279797888907797 C51.88052796303063 15.396353849377327, 51.4878122559001 15.512909809846857, 51.28384013748124 15.573447663922078 M52.27324367016116 15.279797888907797 C52.06722145394727 15.3409442012474, 51.86119923773338 15.402090513587002, 51.28384013748124 15.573447663922078 M51.28384013748124 15.573447663922078 C50.94020224134393 15.651880771268578, 50.59656434520663 15.730313878615078, 50.27765523478994 15.803102801991255 M51.28384013748124 15.573447663922078 C50.95031530189753 15.649572531191106, 50.61679046631382 15.725697398460136, 50.27765523478994 15.803102801991255 M50.27765523478994 15.803102801991255 C49.87490876841512 15.868215727329243, 49.472162302040296 15.93332865266723, 49.258823591678436 15.967819600892128 M50.27765523478994 15.803102801991255 C49.95913115121675 15.854599305632208, 49.64060706764356 15.906095809273161, 49.258823591678436 15.967819600892128 M49.258823591678436 15.967819600892128 C48.987611576043655 15.993983097860244, 48.71639956040887 16.02014659482836, 48.23153180590694 16.06692120396637 M49.258823591678436 15.967819600892128 C49.04931428071051 15.988030712149392, 48.83980496974258 16.008241823406657, 48.23153180590694 16.06692120396637 M48.23153180590694 16.06692120396637 C48.02486214368942 16.073548697775593, 47.81819248147189 16.080176191584815, 47.20000123977661 16.100000381469727 M48.23153180590694 16.06692120396637 C47.95016606039006 16.075944055779896, 47.66880031487318 16.084966907593422, 47.20000123977661 16.100000381469727 M47.20000123977661 16.100000381469727 C47.20000123977661 16.100000381469727, 47.20000123977661 16.100000381469727, 47.20000123977661 16.100000381469727 M47.20000123977661 16.100000381469727 C47.20000123977661 16.100000381469727, 47.20000123977661 16.100000381469727, 47.20000123977661 16.100000381469727 M47.20000123977661 16.100000381469727 C12.644603240404301 16.100000381469727, -21.91079475896801 16.100000381469727, -47.20000123977661 16.100000381469727 M47.20000123977661 16.100000381469727 C27.40767592971808 16.100000381469727, 7.6153506196595515 16.100000381469727, -47.20000123977661 16.100000381469727 M-47.20000123977661 16.100000381469727 C-47.414370999333 16.093125960526176, -47.62874075888939 16.086251539582626, -48.23153180590693 16.06692120396637 M-47.20000123977661 16.100000381469727 C-47.57133393328462 16.088092464744165, -47.94266662679263 16.076184548018603, -48.23153180590693 16.06692120396637 M-48.23153180590693 16.06692120396637 C-48.50389425659521 16.040646725912243, -48.77625670728349 16.014372247858116, -49.25882359167843 15.967819600892128 M-48.23153180590693 16.06692120396637 C-48.477168561213375 16.04322492160338, -48.72280531651982 16.019528639240384, -49.25882359167843 15.967819600892128 M-49.25882359167843 15.967819600892128 C-49.645022043401546 15.905382030231257, -50.03122049512467 15.842944459570386, -50.27765523478993 15.803102801991255 M-49.25882359167843 15.967819600892128 C-49.62313219639636 15.908921010936757, -49.987440801114296 15.850022420981386, -50.27765523478993 15.803102801991255 M-50.27765523478993 15.803102801991255 C-50.635002883609424 15.721540533059542, -50.99235053242892 15.63997826412783, -51.28384013748122 15.573447663922082 M-50.27765523478993 15.803102801991255 C-50.632163403118476 15.72218862595226, -50.98667157144702 15.641274449913265, -51.28384013748122 15.573447663922082 M-51.28384013748122 15.573447663922082 C-51.594873593059994 15.481134566954228, -51.90590704863876 15.388821469986373, -52.27324367016114 15.279797888907805 M-51.28384013748122 15.573447663922082 C-51.53106944239561 15.500071303956593, -51.778298747310004 15.426694943991107, -52.27324367016114 15.279797888907805 M-52.27324367016114 15.279797888907805 C-52.57981421949043 15.166977092847535, -52.88638476881972 15.054156296787266, -53.24180016148754 14.923360146861633 M-52.27324367016114 15.279797888907805 C-52.56884462796257 15.17101400393158, -52.864445585763995 15.062230118955355, -53.24180016148754 14.923360146861633 M-53.24180016148754 14.923360146861633 C-53.52214722197551 14.799258819383683, -53.80249428246348 14.675157491905733, -54.185529605082806 14.505599116921298 M-53.24180016148754 14.923360146861633 C-53.4409881376527 14.835185538514693, -53.64017611381786 14.747010930167752, -54.185529605082806 14.505599116921298 M-54.185529605082806 14.505599116921298 C-54.499529183178325 14.341785738155195, -54.81352876127384 14.177972359389091, -55.10055401423389 14.02823146876828 M-54.185529605082806 14.505599116921298 C-54.477089530246 14.353492490716704, -54.7686494554092 14.201385864512108, -55.10055401423389 14.02823146876828 M-55.10055401423389 14.02823146876828 C-55.4016758641056 13.84568963378764, -55.702797713977304 13.663147798807001, -55.98311335737149 13.493218808463881 M-55.10055401423389 14.02823146876828 C-55.309568669884364 13.901525556206508, -55.518583325534834 13.774819643644738, -55.98311335737149 13.493218808463881 M-55.98311335737149 13.493218808463881 C-56.24097438252793 13.313346119938613, -56.49883540768438 13.133473431413345, -56.82958100884625 12.902759617789139 M-55.98311335737149 13.493218808463881 C-56.18506850687443 13.352343638668147, -56.387023656377366 13.211468468872413, -56.82958100884625 12.902759617789139 M-56.82958100884625 12.902759617789139 C-57.00494093294985 12.762914744840078, -57.18030085705345 12.623069871891017, -57.63647865151151 12.25928022021165 M-56.82958100884625 12.902759617789139 C-57.086248373969454 12.698074224308817, -57.34291573909266 12.493388830828495, -57.63647865151151 12.25928022021165 M-57.63647865151151 12.25928022021165 C-57.80971954932426 12.10194742052109, -57.982960447137 11.944614620830531, -58.40049056987456 11.56542481060195 M-57.63647865151151 12.25928022021165 C-57.85631719330205 12.059628673166559, -58.076155735092584 11.859977126121468, -58.40049056987456 11.56542481060195 M-58.40049056987456 11.56542481060195 C-58.56019498183505 11.400516893276675, -58.719899393795544 11.2356089759514, -59.11847727508284 10.824044589669636 M-58.40049056987456 11.56542481060195 C-58.610353907057004 11.348723684860666, -58.82021724423944 11.132022559119383, -59.11847727508284 10.824044589669636 M-59.11847727508284 10.824044589669636 C-59.28986575148779 10.622721933003808, -59.46125422789273 10.42139927633798, -59.78748840575693 10.038186047768097 M-59.11847727508284 10.824044589669636 C-59.27599203154148 10.639018793889768, -59.433506788000116 10.453992998109902, -59.78748840575693 10.038186047768097 M-59.78748840575693 10.038186047768097 C-60.025590134391365 9.719151422911672, -60.2636918630258 9.400116798055247, -60.40477485165848 9.211078446212122 M-59.78748840575693 10.038186047768097 C-59.9458474256015 9.82599938797987, -60.10420644544607 9.613812728191643, -60.40477485165848 9.211078446212122 M-60.40477485165848 9.211078446212122 C-60.59927020031837 8.912281361356616, -60.79376554897827 8.613484276501111, -60.967800050373754 8.346120547550534 M-60.40477485165848 9.211078446212122 C-60.55220238459359 8.984590165788095, -60.69962991752871 8.758101885364068, -60.967800050373754 8.346120547550534 M-60.967800050373754 8.346120547550534 C-61.09809410286672 8.114770263645783, -61.22838815535968 7.883419979741032, -61.4742504105927 7.446866649321804 M-60.967800050373754 8.346120547550534 C-61.099206931041245 8.112794324535836, -61.23061381170874 7.8794681015211365, -61.4742504105927 7.446866649321804 M-61.4742504105927 7.446866649321804 C-61.627363538859974 7.128923962378687, -61.78047666712725 6.81098127543557, -61.92204481915192 6.517011978683137 M-61.4742504105927 7.446866649321804 C-61.589286971351285 7.2079907695185215, -61.70432353210986 6.969114889715239, -61.92204481915192 6.517011978683137 M-61.92204481915192 6.517011978683137 C-62.04361347102523 6.2167350581860825, -62.165182122898536 5.916458137689028, -62.309343192775046 5.560377507929375 M-61.92204481915192 6.517011978683137 C-62.05329112358 6.192831069271112, -62.18453742800808 5.8686501598590874, -62.309343192775046 5.560377507929375 M-62.309343192775046 5.560377507929375 C-62.393661897720605 5.3064230029945545, -62.477980602666165 5.052468498059733, -62.63455403936961 4.5808942532982835 M-62.309343192775046 5.560377507929375 C-62.39618162676423 5.298833980579466, -62.48302006075341 5.0372904532295575, -62.63455403936961 4.5808942532982835 M-62.63455403936961 4.5808942532982835 C-62.72732304539044 4.227125826999325, -62.820092051411265 3.873357400700367, -62.89634099780945 3.5825871215816654 M-62.63455403936961 4.5808942532982835 C-62.68805718070842 4.376863586965269, -62.74156032204723 4.172832920632253, -62.89634099780945 3.5825871215816654 M-62.89634099780945 3.5825871215816654 C-62.94259321607156 3.3450917562155613, -62.988845434333655 3.1075963908494573, -63.09362832932922 2.5695583709199417 M-62.89634099780945 3.5825871215816654 C-62.95730465738574 3.269551614331435, -63.01826831696203 2.9565161070812045, -63.09362832932922 2.5695583709199417 M-63.09362832932922 2.5695583709199417 C-63.14123529636429 2.200328135654886, -63.18884226339937 1.83109790038983, -63.2256053379657 1.5459707537435659 M-63.09362832932922 2.5695583709199417 C-63.14046210228811 2.20632487622532, -63.187295875247 1.843091381530698, -63.2256053379657 1.5459707537435659 M-63.2256053379657 1.5459707537435659 C-63.245571840202444 1.2349763647357606, -63.26553834243919 0.9239819757279552, -63.29172970188142 0.5160304111303567 M-63.2256053379657 1.5459707537435659 C-63.250293773562454 1.1614284411776787, -63.2749822091592 0.7768861286117915, -63.29172970188142 0.5160304111303567 M-63.29172970188142 0.5160304111303567 C-63.29172970188142 0.2913803372637551, -63.29172970188142 0.06673026339715354, -63.29172970188142 -0.5160304111303489 M-63.29172970188142 0.5160304111303567 C-63.29172970188142 0.22655093944551286, -63.29172970188142 -0.06292853223933104, -63.29172970188142 -0.5160304111303489 M-63.29172970188142 -0.5160304111303489 C-63.26991535753351 -0.8558064325708734, -63.248101013185604 -1.195582454011398, -63.2256053379657 -1.5459707537435436 M-63.29172970188142 -0.5160304111303489 C-63.274570525210805 -0.7832984384133324, -63.25741134854019 -1.050566465696316, -63.2256053379657 -1.5459707537435436 M-63.2256053379657 -1.5459707537435436 C-63.19545604562388 -1.7798027114955588, -63.16530675328205 -2.013634669247574, -63.09362832932922 -2.569558370919934 M-63.2256053379657 -1.5459707537435436 C-63.1864496023098 -1.849654907316166, -63.14729386665389 -2.1533390608887886, -63.09362832932922 -2.569558370919934 M-63.09362832932922 -2.569558370919934 C-63.0168266198718 -2.963918916936731, -62.94002491041439 -3.3582794629535275, -62.89634099780945 -3.5825871215816574 M-63.09362832932922 -2.569558370919934 C-63.03741571008207 -2.8581982902127625, -62.981203090834924 -3.1468382095055913, -62.89634099780945 -3.5825871215816574 M-62.89634099780945 -3.5825871215816574 C-62.819797467165934 -3.8744807781014257, -62.74325393652242 -4.1663744346211935, -62.63455403936962 -4.580894253298275 M-62.89634099780945 -3.5825871215816574 C-62.820746316319955 -3.8708624050433253, -62.74515163483046 -4.159137688504994, -62.63455403936962 -4.580894253298275 M-62.63455403936962 -4.580894253298275 C-62.517713844229924 -4.932798305102044, -62.40087364909022 -5.284702356905814, -62.30934319277505 -5.5603775079293545 M-62.63455403936962 -4.580894253298275 C-62.54228946383897 -4.85878045443283, -62.45002488830832 -5.136666655567386, -62.30934319277505 -5.5603775079293545 M-62.30934319277505 -5.5603775079293545 C-62.15846092459369 -5.933059627447523, -62.00757865641233 -6.305741746965691, -61.92204481915193 -6.51701197868313 M-62.30934319277505 -5.5603775079293545 C-62.18694721166543 -5.862697947635445, -62.0645512305558 -6.165018387341535, -61.92204481915193 -6.51701197868313 M-61.92204481915193 -6.51701197868313 C-61.774640566825425 -6.823100062584855, -61.62723631449893 -7.129188146486579, -61.47425041059271 -7.446866649321797 M-61.92204481915193 -6.51701197868313 C-61.812216060851334 -6.745073745253285, -61.70238730255074 -6.9731355118234415, -61.47425041059271 -7.446866649321797 M-61.47425041059271 -7.446866649321797 C-61.30294262698565 -7.751040965910245, -61.13163484337859 -8.055215282498693, -60.96780005037376 -8.346120547550528 M-61.47425041059271 -7.446866649321797 C-61.30832292095149 -7.7414877091600545, -61.14239543131027 -8.03610876899831, -60.96780005037376 -8.346120547550528 M-60.96780005037376 -8.346120547550528 C-60.79433831939442 -8.612604347331521, -60.62087658841507 -8.879088147112514, -60.40477485165849 -9.211078446212117 M-60.96780005037376 -8.346120547550528 C-60.756657718594944 -8.67049186881757, -60.545515386816135 -8.99486319008461, -60.40477485165849 -9.211078446212117 M-60.40477485165849 -9.211078446212117 C-60.25272337771429 -9.4148135691231, -60.10067190377009 -9.61854869203408, -59.78748840575693 -10.038186047768091 M-60.40477485165849 -9.211078446212117 C-60.20166478450655 -9.483227432487938, -59.99855471735461 -9.755376418763761, -59.78748840575693 -10.038186047768091 M-59.78748840575693 -10.038186047768091 C-59.64662852874811 -10.203648074456716, -59.50576865173929 -10.36911010114534, -59.11847727508284 -10.82404458966963 M-59.78748840575693 -10.038186047768091 C-59.525706325746754 -10.345690174770382, -59.26392424573657 -10.653194301772674, -59.11847727508284 -10.82404458966963 M-59.11847727508284 -10.82404458966963 C-58.84189737082647 -11.109636048446777, -58.5653174665701 -11.395227507223925, -58.400490569874584 -11.565424810601936 M-59.11847727508284 -10.82404458966963 C-58.91126481979469 -11.038008462213616, -58.70405236450654 -11.251972334757602, -58.400490569874584 -11.565424810601936 M-58.400490569874584 -11.565424810601936 C-58.120929065155046 -11.819315172396138, -57.84136756043551 -12.07320553419034, -57.636478651511524 -12.259280220211634 M-58.400490569874584 -11.565424810601936 C-58.243541674336875 -11.707961644889062, -58.08659277879917 -11.85049847917619, -57.636478651511524 -12.259280220211634 M-57.636478651511524 -12.259280220211634 C-57.46836491642843 -12.393346450246028, -57.30025118134534 -12.527412680280424, -56.829581008846255 -12.902759617789133 M-57.636478651511524 -12.259280220211634 C-57.31424339976155 -12.516254258442064, -56.99200814801157 -12.773228296672494, -56.829581008846255 -12.902759617789133 M-56.829581008846255 -12.902759617789133 C-56.65011472849201 -13.027947525994195, -56.47064844813776 -13.153135434199255, -55.98311335737151 -13.493218808463869 M-56.829581008846255 -12.902759617789133 C-56.53870044579129 -13.10566530655965, -56.24781988273633 -13.308570995330166, -55.98311335737151 -13.493218808463869 M-55.98311335737151 -13.493218808463869 C-55.74254367782868 -13.63905356194709, -55.501973998285855 -13.784888315430312, -55.1005540142339 -14.028231468768276 M-55.98311335737151 -13.493218808463869 C-55.746055038124396 -13.636924954700785, -55.508996718877285 -13.7806311009377, -55.1005540142339 -14.028231468768276 M-55.1005540142339 -14.028231468768276 C-54.90338137307776 -14.131096309364331, -54.70620873192161 -14.233961149960388, -54.18552960508281 -14.505599116921294 M-55.1005540142339 -14.028231468768276 C-54.75880975878273 -14.20651922793951, -54.417065503331564 -14.384806987110741, -54.18552960508281 -14.505599116921294 M-54.18552960508281 -14.505599116921294 C-53.92299041658169 -14.621817427722423, -53.66045122808056 -14.73803573852355, -53.24180016148755 -14.92336014686163 M-54.18552960508281 -14.505599116921294 C-53.92061822432524 -14.62286752686577, -53.65570684356766 -14.740135936810244, -53.24180016148755 -14.92336014686163 M-53.24180016148755 -14.92336014686163 C-52.992549879110776 -15.015086554820634, -52.743299596734005 -15.106812962779639, -52.273243670161165 -15.279797888907797 M-53.24180016148755 -14.92336014686163 C-52.891897905546045 -15.0521274115091, -52.541995649604544 -15.18089467615657, -52.273243670161165 -15.279797888907797 M-52.273243670161165 -15.279797888907797 C-52.04141758999055 -15.348602652622509, -51.80959150981994 -15.41740741633722, -51.28384013748124 -15.573447663922076 M-52.273243670161165 -15.279797888907797 C-52.072324486176825 -15.33942964806803, -51.87140530219249 -15.399061407228263, -51.28384013748124 -15.573447663922076 M-51.28384013748124 -15.573447663922076 C-51.02838554545168 -15.631753507555823, -50.77293095342211 -15.690059351189568, -50.27765523478994 -15.803102801991253 M-51.28384013748124 -15.573447663922076 C-51.04263985395765 -15.628500054657389, -50.80143957043407 -15.683552445392701, -50.27765523478994 -15.803102801991253 M-50.27765523478994 -15.803102801991253 C-49.99332168628165 -15.849071645074472, -49.70898813777336 -15.895040488157694, -49.258823591678436 -15.967819600892128 M-50.27765523478994 -15.803102801991253 C-49.89218959762795 -15.865421896876942, -49.506723960465955 -15.927740991762633, -49.258823591678436 -15.967819600892128 M-49.258823591678436 -15.967819600892128 C-49.018405023644426 -15.991012491004737, -48.777986455610424 -16.014205381117346, -48.23153180590694 -16.06692120396637 M-49.258823591678436 -15.967819600892128 C-48.94159061415701 -15.998422684705144, -48.62435763663558 -16.02902576851816, -48.23153180590694 -16.06692120396637 M-48.23153180590694 -16.06692120396637 C-47.8466942350276 -16.07926219582358, -47.461856664148264 -16.091603187680793, -47.20000123977662 -16.100000381469727 M-48.23153180590694 -16.06692120396637 C-48.008747561434525 -16.074065461063373, -47.78596331696212 -16.08120971816038, -47.20000123977662 -16.100000381469727 M-47.20000123977662 -16.100000381469727 C-47.20000123977662 -16.100000381469727, -47.20000123977661 -16.100000381469727, -47.20000123977661 -16.100000381469727 M-47.20000123977662 -16.100000381469727 C-47.20000123977662 -16.100000381469727, -47.20000123977661 -16.100000381469727, -47.20000123977661 -16.100000381469727" stroke="#ccc" stroke-width="1.3" fill="none" stroke-dasharray="0 0" style=""></path></g><g class="label" style="" transform="translate(0, -8.600000381469727)"><rect></rect><g><rect class="background" style="stroke: none"></rect><text y="-10.1" style=""><tspan class="text-outer-tspan" x="0" y="-0.1em" dy="1.1em"><tspan font-style="normal" class="text-inner-tspan" font-weight="normal">Bug</tspan><tspan font-style="normal" class="text-inner-tspan" font-weight="normal"> detectado</tspan></tspan></text></g></g></g><g class="node default" id="flowchart-Registro-1" transform="translate(520.1041564941406, 113.80000114440918)"><rect class="basic label-container" style="" x="-96.08332824707031" y="-23.600000381469727" width="192.16665649414062" height="47.20000076293945"></rect><g class="label" style="" transform="translate(0, -8.600000381469727)"><rect></rect><g><rect class="background" style="stroke: none"></rect><text y="-10.1" style=""><tspan class="text-outer-tspan" x="0" y="-0.1em" dy="1.1em"><tspan font-style="normal" class="text-inner-tspan" font-weight="normal">Registrar</tspan><tspan font-style="normal" class="text-inner-tspan" font-weight="normal"> en</tspan><tspan font-style="normal" class="text-inner-tspan" font-weight="normal"> Issues</tspan></tspan></text></g></g></g><g class="node default" id="flowchart-Etiqueta-3" transform="translate(520.1041564941406, 211.00000190734863)"><rect class="basic label-container" style="" x="-88.75" y="-23.600000381469727" width="177.5" height="47.20000076293945"></rect><g class="label" style="" transform="translate(0, -8.600000381469727)"><rect></rect><g><rect class="background" style="stroke: none"></rect><text y="-10.1" style=""><tspan class="text-outer-tspan" x="0" y="-0.1em" dy="1.1em"><tspan font-style="normal" class="text-inner-tspan" font-weight="normal">Asignar</tspan><tspan font-style="normal" class="text-inner-tspan" font-weight="normal"> etiqueta</tspan></tspan></text></g></g></g><g class="node default" id="flowchart-Critico-5" transform="translate(104.79166412353516, 308.2000026702881)"><rect class="basic label-container" style="" x="-53.88333320617676" y="-23.600000381469727" width="107.76666641235352" height="47.20000076293945"></rect><g class="label" style="" transform="translate(0, -8.600000381469727)"><rect></rect><g><rect class="background" style="stroke: none"></rect><text y="-10.1" style=""><tspan class="text-outer-tspan" x="0" y="-0.1em" dy="1.1em"><tspan font-style="normal" class="text-inner-tspan" font-weight="normal">Crítico</tspan></tspan></text></g></g></g><g class="node default" id="flowchart-Alto-7" transform="translate(337.72499084472656, 308.2000026702881)"><rect class="basic label-container" style="" x="-44.541666984558105" y="-23.600000381469727" width="89.08333396911621" height="47.20000076293945"></rect><g class="label" style="" transform="translate(0, -8.600000381469727)"><rect></rect><g><rect class="background" style="stroke: none"></rect><text y="-10.1" style=""><tspan class="text-outer-tspan" x="0" y="-0.1em" dy="1.1em"><tspan font-style="normal" class="text-inner-tspan" font-weight="normal">Alto</tspan></tspan></text></g></g></g><g class="node default" id="flowchart-Medio-9" transform="translate(531.2499885559082, 308.2000026702881)"><rect class="basic label-container" style="" x="-51.07500076293945" y="-23.600000381469727" width="102.1500015258789" height="47.20000076293945"></rect><g class="label" style="" transform="translate(0, -8.600000381469727)"><rect></rect><g><rect class="background" style="stroke: none"></rect><text y="-10.1" style=""><tspan class="text-outer-tspan" x="0" y="-0.1em" dy="1.1em"><tspan font-style="normal" class="text-inner-tspan" font-weight="normal">Medio</tspan></tspan></text></g></g></g><g class="node default" id="flowchart-Bajo-11" transform="translate(719.0833206176758, 308.2000026702881)"><rect class="basic label-container" style="" x="-45.94999980926514" y="-23.600000381469727" width="91.89999961853027" height="47.20000076293945"></rect><g class="label" style="" transform="translate(0, -8.600000381469727)"><rect></rect><g><rect class="background" style="stroke: none"></rect><text y="-10.1" style=""><tspan class="text-outer-tspan" x="0" y="-0.1em" dy="1.1em"><tspan font-style="normal" class="text-inner-tspan" font-weight="normal">Bajo</tspan></tspan></text></g></g></g><g class="node default" id="flowchart-Reunion-13" transform="translate(104.79166412353516, 405.40000343322754)"><rect class="basic label-container" style="" x="-96.79166412353516" y="-23.600000381469727" width="193.5833282470703" height="47.20000076293945"></rect><g class="label" style="" transform="translate(0, -8.600000381469727)"><rect></rect><g><rect class="background" style="stroke: none"></rect><text y="-10.1" style=""><tspan class="text-outer-tspan" x="0" y="-0.1em" dy="1.1em"><tspan font-style="normal" class="text-inner-tspan" font-weight="normal">Reunión</tspan><tspan font-style="normal" class="text-inner-tspan" font-weight="normal"> inmediata</tspan></tspan></text></g></g></g><g class="node default" id="flowchart-Sprint-15" transform="translate(337.72499084472656, 405.40000343322754)"><rect class="basic label-container" style="" x="-86.14166259765625" y="-23.600000381469727" width="172.2833251953125" height="47.20000076293945"></rect><g class="label" style="" transform="translate(0, -8.600000381469727)"><rect></rect><g><rect class="background" style="stroke: none"></rect><text y="-10.1" style=""><tspan class="text-outer-tspan" x="0" y="-0.1em" dy="1.1em"><tspan font-style="normal" class="text-inner-tspan" font-weight="normal">Siguiente</tspan><tspan font-style="normal" class="text-inner-tspan" font-weight="normal"> sprint</tspan></tspan></text></g></g></g><g class="node default" id="flowchart-Backlog-17" transform="translate(531.2499885559082, 405.40000343322754)"><rect class="basic label-container" style="" x="-57.38333320617676" y="-23.600000381469727" width="114.76666641235352" height="47.20000076293945"></rect><g class="label" style="" transform="translate(0, -8.600000381469727)"><rect></rect><g><rect class="background" style="stroke: none"></rect><text y="-10.1" style=""><tspan class="text-outer-tspan" x="0" y="-0.1em" dy="1.1em"><tspan font-style="normal" class="text-inner-tspan" font-weight="normal">Backlog</tspan></tspan></text></g></g></g><g class="node default" id="flowchart-Futuro-19" transform="translate(719.0833206176758, 405.40000343322754)"><rect class="basic label-container" style="" x="-80.44999694824219" y="-23.600000381469727" width="160.89999389648438" height="47.20000076293945"></rect><g class="label" style="" transform="translate(0, -8.600000381469727)"><rect></rect><g><rect class="background" style="stroke: none"></rect><text y="-10.1" style=""><tspan class="text-outer-tspan" x="0" y="-0.1em" dy="1.1em"><tspan font-style="normal" class="text-inner-tspan" font-weight="normal">Versión</tspan><tspan font-style="normal" class="text-inner-tspan" font-weight="normal"> futura</tspan></tspan></text></g></g></g><g class="node default" id="flowchart-Asignar-21" transform="translate(337.72499084472656, 502.600004196167)"><rect class="basic label-container" style="" x="-100.81666564941406" y="-23.600000381469727" width="201.63333129882812" height="47.20000076293945"></rect><g class="label" style="" transform="translate(0, -8.600000381469727)"><rect></rect><g><rect class="background" style="stroke: none"></rect><text y="-10.1" style=""><tspan class="text-outer-tspan" x="0" y="-0.1em" dy="1.1em"><tspan font-style="normal" class="text-inner-tspan" font-weight="normal">Asignar</tspan><tspan font-style="normal" class="text-inner-tspan" font-weight="normal"> responsable</tspan></tspan></text></g></g></g><g class="node default" id="flowchart-Fix-27" transform="translate(337.72499084472656, 599.8000049591064)"><rect class="basic label-container" style="" x="-80.90833282470703" y="-23.600000381469727" width="161.81666564941406" height="47.20000076293945"></rect><g class="label" style="" transform="translate(0, -8.600000381469727)"><rect></rect><g><rect class="background" style="stroke: none"></rect><text y="-10.1" style=""><tspan class="text-outer-tspan" x="0" y="-0.1em" dy="1.1em"><tspan font-style="normal" class="text-inner-tspan" font-weight="normal">Desarrollar</tspan><tspan font-style="normal" class="text-inner-tspan" font-weight="normal"> fix</tspan></tspan></text></g></g></g><g class="node default" id="flowchart-PR-29" transform="translate(221.25832748413086, 697.0000057220459)"><rect class="basic label-container" style="" x="-96.25" y="-23.600000381469727" width="192.5" height="47.20000076293945"></rect><g class="label" style="" transform="translate(0, -8.600000381469727)"><rect></rect><g><rect class="background" style="stroke: none"></rect><text y="-10.1" style=""><tspan class="text-outer-tspan" x="0" y="-0.1em" dy="1.1em"><tspan font-style="normal" class="text-inner-tspan" font-weight="normal">Crear</tspan><tspan font-style="normal" class="text-inner-tspan" font-weight="normal"> Pull</tspan><tspan font-style="normal" class="text-inner-tspan" font-weight="normal"> Request</tspan></tspan></text></g></g></g><g class="node default" id="flowchart-Revision-31" transform="translate(273.4166555404663, 794.2000064849854)"><rect class="basic label-container" style="" x="-74.29999923706055" y="-23.600000381469727" width="148.5999984741211" height="47.20000076293945"></rect><g class="label" style="" transform="translate(0, -8.600000381469727)"><rect></rect><g><rect class="background" style="stroke: none"></rect><text y="-10.1" style=""><tspan class="text-outer-tspan" x="0" y="-0.1em" dy="1.1em"><tspan font-style="normal" class="text-inner-tspan" font-weight="normal">Code</tspan><tspan font-style="normal" class="text-inner-tspan" font-weight="normal"> review</tspan></tspan></text></g></g></g><g class="node default" id="flowchart-Merge-33" transform="translate(273.4166555404663, 912.6000080108643)"><rect class="basic label-container" style="" x="-78.04999923706055" y="-23.600000381469727" width="156.0999984741211" height="47.20000076293945"></rect><g class="label" style="" transform="translate(0, -8.600000381469727)"><rect></rect><g><rect class="background" style="stroke: none"></rect><text y="-10.1" style=""><tspan class="text-outer-tspan" x="0" y="-0.1em" dy="1.1em"><tspan font-style="normal" class="text-inner-tspan" font-weight="normal">Merge</tspan><tspan font-style="normal" class="text-inner-tspan" font-weight="normal"> a</tspan><tspan font-style="normal" class="text-inner-tspan" font-weight="normal"> main</tspan></tspan></text></g></g></g><g class="node default" id="flowchart-Test-37" transform="translate(337.72499084472656, 1009.8000087738037)"><rect class="basic label-container" style="" x="-64.90833282470703" y="-23.600000381469727" width="129.81666564941406" height="47.20000076293945"></rect><g class="label" style="" transform="translate(0, -8.600000381469727)"><rect></rect><g><rect class="background" style="stroke: none"></rect><text y="-10.1" style=""><tspan class="text-outer-tspan" x="0" y="-0.1em" dy="1.1em"><tspan font-style="normal" class="text-inner-tspan" font-weight="normal">Probar</tspan><tspan font-style="normal" class="text-inner-tspan" font-weight="normal"> fix</tspan></tspan></text></g></g></g><g class="node default" id="flowchart-Cerrar-39" transform="translate(337.72499084472656, 1128.2000102996826)"><rect class="basic label-container" style="" x="-72.59166717529297" y="-23.600000381469727" width="145.18333435058594" height="47.20000076293945"></rect><g class="label" style="" transform="translate(0, -8.600000381469727)"><rect></rect><g><rect class="background" style="stroke: none"></rect><text y="-10.1" style=""><tspan class="text-outer-tspan" x="0" y="-0.1em" dy="1.1em"><tspan font-style="normal" class="text-inner-tspan" font-weight="normal">Cerrar</tspan><tspan font-style="normal" class="text-inner-tspan" font-weight="normal"> issue</tspan></tspan></text></g></g></g></g></g></g></svg>