<svg id="mermaid-_r_dh_" width="3072.04931640625" xmlns="http://www.w3.org/2000/svg" class="flowchart" height="572.9500122070312" viewBox="0 -0.9999995231628418 3072.04931640625 572.9500122070312" role="graphics-document document" aria-roledescription="flowchart-v2"><style>#mermaid-_r_dh_{font-family:"trebuchet ms",verdana,arial,sans-serif;font-size:16px;fill:#ccc;}@keyframes edge-animation-frame{from{stroke-dashoffset:0;}}@keyframes dash{to{stroke-dashoffset:0;}}#mermaid-_r_dh_ .edge-animation-slow{stroke-dasharray:9,5!important;stroke-dashoffset:900;animation:dash 50s linear infinite;stroke-linecap:round;}#mermaid-_r_dh_ .edge-animation-fast{stroke-dasharray:9,5!important;stroke-dashoffset:900;animation:dash 20s linear infinite;stroke-linecap:round;}#mermaid-_r_dh_ .error-icon{fill:#a44141;}#mermaid-_r_dh_ .error-text{fill:#ddd;stroke:#ddd;}#mermaid-_r_dh_ .edge-thickness-normal{stroke-width:1px;}#mermaid-_r_dh_ .edge-thickness-thick{stroke-width:3.5px;}#mermaid-_r_dh_ .edge-pattern-solid{stroke-dasharray:0;}#mermaid-_r_dh_ .edge-thickness-invisible{stroke-width:0;fill:none;}#mermaid-_r_dh_ .edge-pattern-dashed{stroke-dasharray:3;}#mermaid-_r_dh_ .edge-pattern-dotted{stroke-dasharray:2;}#mermaid-_r_dh_ .marker{fill:lightgrey;stroke:lightgrey;}#mermaid-_r_dh_ .marker.cross{stroke:lightgrey;}#mermaid-_r_dh_ svg{font-family:"trebuchet ms",verdana,arial,sans-serif;font-size:16px;}#mermaid-_r_dh_ p{margin:0;}#mermaid-_r_dh_ .label{font-family:"trebuchet ms",verdana,arial,sans-serif;color:#ccc;}#mermaid-_r_dh_ .cluster-label text{fill:#F9FFFE;}#mermaid-_r_dh_ .cluster-label span{color:#F9FFFE;}#mermaid-_r_dh_ .cluster-label span p{background-color:transparent;}#mermaid-_r_dh_ .label text,#mermaid-_r_dh_ span{fill:#ccc;color:#ccc;}#mermaid-_r_dh_ .node rect,#mermaid-_r_dh_ .node circle,#mermaid-_r_dh_ .node ellipse,#mermaid-_r_dh_ .node polygon,#mermaid-_r_dh_ .node path{fill:#1f2020;stroke:#ccc;stroke-width:1px;}#mermaid-_r_dh_ .rough-node .label text,#mermaid-_r_dh_ .node .label text,#mermaid-_r_dh_ .image-shape .label,#mermaid-_r_dh_ .icon-shape .label{text-anchor:middle;}#mermaid-_r_dh_ .node .katex path{fill:#000;stroke:#000;stroke-width:1px;}#mermaid-_r_dh_ .rough-node .label,#mermaid-_r_dh_ .node .label,#mermaid-_r_dh_ .image-shape .label,#mermaid-_r_dh_ .icon-shape .label{text-align:center;}#mermaid-_r_dh_ .node.clickable{cursor:pointer;}#mermaid-_r_dh_ .root .anchor path{fill:lightgrey!important;stroke-width:0;stroke:lightgrey;}#mermaid-_r_dh_ .arrowheadPath{fill:lightgrey;}#mermaid-_r_dh_ .edgePath .path{stroke:lightgrey;stroke-width:2.0px;}#mermaid-_r_dh_ .flowchart-link{stroke:lightgrey;fill:none;}#mermaid-_r_dh_ .edgeLabel{background-color:hsl(0, 0%, 34.4117647059%);text-align:center;}#mermaid-_r_dh_ .edgeLabel p{background-color:hsl(0, 0%, 34.4117647059%);}#mermaid-_r_dh_ .edgeLabel rect{opacity:0.5;background-color:hsl(0, 0%, 34.4117647059%);fill:hsl(0, 0%, 34.4117647059%);}#mermaid-_r_dh_ .labelBkg{background-color:rgba(87.75, 87.75, 87.75, 0.5);}#mermaid-_r_dh_ .cluster rect{fill:hsl(180, 1.5873015873%, 28.3529411765%);stroke:rgba(255, 255, 255, 0.25);stroke-width:1px;}#mermaid-_r_dh_ .cluster text{fill:#F9FFFE;}#mermaid-_r_dh_ .cluster span{color:#F9FFFE;}#mermaid-_r_dh_ div.mermaidTooltip{position:absolute;text-align:center;max-width:200px;padding:2px;font-family:"trebuchet ms",verdana,arial,sans-serif;font-size:12px;background:hsl(20, 1.5873015873%, 12.3529411765%);border:1px solid rgba(255, 255, 255, 0.25);border-radius:2px;pointer-events:none;z-index:100;}#mermaid-_r_dh_ .flowchartTitleText{text-anchor:middle;font-size:18px;fill:#ccc;}#mermaid-_r_dh_ rect.text{fill:none;stroke-width:0;}#mermaid-_r_dh_ .icon-shape,#mermaid-_r_dh_ .image-shape{background-color:hsl(0, 0%, 34.4117647059%);text-align:center;}#mermaid-_r_dh_ .icon-shape p,#mermaid-_r_dh_ .image-shape p{background-color:hsl(0, 0%, 34.4117647059%);padding:2px;}#mermaid-_r_dh_ .icon-shape rect,#mermaid-_r_dh_ .image-shape rect{opacity:0.5;background-color:hsl(0, 0%, 34.4117647059%);fill:hsl(0, 0%, 34.4117647059%);}#mermaid-_r_dh_ .label-icon{display:inline-block;height:1em;overflow:visible;vertical-align:-0.125em;}#mermaid-_r_dh_ .node .label-icon path{fill:currentColor;stroke:revert;stroke-width:revert;}#mermaid-_r_dh_ :root{--mermaid-font-family:"trebuchet ms",verdana,arial,sans-serif;}</style><g><marker id="mermaid-_r_dh__flowchart-v2-pointEnd" class="marker flowchart-v2" viewBox="0 0 10 10" refX="5" refY="5" markerUnits="userSpaceOnUse" markerWidth="8" markerHeight="8" orient="auto"><path d="M 0 0 L 10 5 L 0 10 z" class="arrowMarkerPath" style="stroke-width: 1px; stroke-dasharray: 1px, 0px;"></path></marker><marker id="mermaid-_r_dh__flowchart-v2-pointStart" class="marker flowchart-v2" viewBox="0 0 10 10" refX="4.5" refY="5" markerUnits="userSpaceOnUse" markerWidth="8" markerHeight="8" orient="auto"><path d="M 0 5 L 10 10 L 10 0 z" class="arrowMarkerPath" style="stroke-width: 1px; stroke-dasharray: 1px, 0px;"></path></marker><marker id="mermaid-_r_dh__flowchart-v2-circleEnd" class="marker flowchart-v2" viewBox="0 0 10 10" refX="11" refY="5" markerUnits="userSpaceOnUse" markerWidth="11" markerHeight="11" orient="auto"><circle cx="5" cy="5" r="5" class="arrowMarkerPath" style="stroke-width: 1px; stroke-dasharray: 1px, 0px;"></circle></marker><marker id="mermaid-_r_dh__flowchart-v2-circleStart" class="marker flowchart-v2" viewBox="0 0 10 10" refX="-1" refY="5" markerUnits="userSpaceOnUse" markerWidth="11" markerHeight="11" orient="auto"><circle cx="5" cy="5" r="5" class="arrowMarkerPath" style="stroke-width: 1px; stroke-dasharray: 1px, 0px;"></circle></marker><marker id="mermaid-_r_dh__flowchart-v2-crossEnd" class="marker cross flowchart-v2" viewBox="0 0 11 11" refX="12" refY="5.2" markerUnits="userSpaceOnUse" markerWidth="11" markerHeight="11" orient="auto"><path d="M 1,1 l 9,9 M 10,1 l -9,9" class="arrowMarkerPath" style="stroke-width: 2px; stroke-dasharray: 1px, 0px;"></path></marker><marker id="mermaid-_r_dh__flowchart-v2-crossStart" class="marker cross flowchart-v2" viewBox="0 0 11 11" refX="-1" refY="5.2" markerUnits="userSpaceOnUse" markerWidth="11" markerHeight="11" orient="auto"><path d="M 1,1 l 9,9 M 10,1 l -9,9" class="arrowMarkerPath" style="stroke-width: 2px; stroke-dasharray: 1px, 0px;"></path></marker><g class="root"><g class="clusters"></g><g class="edgePaths"><path d="M204.25,152.65L208.417,152.65C212.583,152.65,220.917,152.65,228.583,152.65C236.25,152.65,243.25,152.65,246.75,152.65L250.25,152.65" id="L_Inicio_Experiencia_0" class="edge-thickness-normal edge-pattern-solid edge-thickness-normal edge-pattern-solid flowchart-link" style=";" data-edge="true" data-et="edge" data-id="L_Inicio_Experiencia_0" data-points="W3sieCI6MjA0LjI1LCJ5IjoxNTIuNjQ5OTk5NjE4NTMwMjd9LHsieCI6MjI5LjI1LCJ5IjoxNTIuNjQ5OTk5NjE4NTMwMjd9LHsieCI6MjU0LjI1LCJ5IjoxNTIuNjQ5OTk5NjE4NTMwMjd9XQ==" marker-end="url(#mermaid-_r_dh__flowchart-v2-pointEnd)"></path><path d="M381.817,152.65L385.983,152.65C390.15,152.65,398.483,152.65,406.15,152.65C413.817,152.65,420.817,152.65,424.317,152.65L427.817,152.65" id="L_Experiencia_Umbral_0" class="edge-thickness-normal edge-pattern-solid edge-thickness-normal edge-pattern-solid flowchart-link" style=";" data-edge="true" data-et="edge" data-id="L_Experiencia_Umbral_0" data-points="W3sieCI6MzgxLjgxNjY2NTY0OTQxNDA2LCJ5IjoxNTIuNjQ5OTk5NjE4NTMwMjd9LHsieCI6NDA2LjgxNjY2NTY0OTQxNDA2LCJ5IjoxNTIuNjQ5OTk5NjE4NTMwMjd9LHsieCI6NDMxLjgxNjY2NTY0OTQxNDA2LCJ5IjoxNTIuNjQ5OTk5NjE4NTMwMjd9XQ==" marker-end="url(#mermaid-_r_dh__flowchart-v2-pointEnd)"></path><path d="M621.362,96.012L636.324,83.26C651.286,70.508,681.21,45.004,715.673,32.252C750.136,19.5,789.139,19.5,826.786,19.5C864.433,19.5,900.725,19.5,943.242,19.5C985.758,19.5,1034.5,19.5,1083.242,19.5C1131.983,19.5,1180.725,19.5,1227.967,19.5C1275.208,19.5,1320.95,19.5,1372.251,19.5C1423.553,19.5,1480.414,19.5,1534.336,19.5C1588.258,19.5,1639.242,19.5,1690.225,19.5C1741.208,19.5,1792.192,19.5,1840.008,19.5C1887.825,19.5,1932.475,19.5,1981.618,19.5C2030.761,19.5,2084.397,19.5,2146.903,19.5C2209.408,19.5,2280.783,19.5,2342.106,19.5C2403.428,19.5,2454.697,19.5,2500.264,19.5C2545.831,19.5,2585.694,19.5,2625.558,19.5C2665.422,19.5,2705.286,19.5,2745.943,19.5C2786.6,19.5,2828.05,19.5,2869.5,19.5C2910.95,19.5,2952.4,19.5,2979.904,38.317C3007.407,57.134,3020.965,94.768,3027.743,113.585L3034.522,132.402" id="L_Umbral_Fin_0" class="edge-thickness-normal edge-pattern-solid edge-thickness-normal edge-pattern-solid flowchart-link" style=";" data-edge="true" data-et="edge" data-id="L_Umbral_Fin_0" data-points="W3sieCI6NjIxLjM2MTg4MTg1NzY3NzgsInkiOjk2LjAxMTg4MTQ3NjIwNzk5fSx7IngiOjcxMS4xMzMzMzMyMDYxNzY4LCJ5IjoxOS41fSx7IngiOjgyOC4xNDE2NjY0MTIzNTM1LCJ5IjoxOS41fSx7IngiOjkzNy4wMTY2NjY0MTIzNTM1LCJ5IjoxOS41fSx7IngiOjEwODMuMjQxNjY0ODg2NDc0NiwieSI6MTkuNX0seyJ4IjoxMjI5LjQ2NjY2MzM2MDU5NTcsInkiOjE5LjV9LHsieCI6MTM2Ni42OTE2Njk0NjQxMTEzLCJ5IjoxOS41fSx7IngiOjE1MzcuMjc1MDA5MTU1MjczNCwieSI6MTkuNX0seyJ4IjoxNjkwLjIyNTAwOTkxODIxMywieSI6MTkuNX0seyJ4IjoxODQzLjE3NTAxMDY4MTE1MjMsInkiOjE5LjV9LHsieCI6MTk3Ny4xMjUwMTE0NDQwOTE4LCJ5IjoxOS41fSx7IngiOjIxMzguMDMzMzQ0MjY4Nzk5LCJ5IjoxOS41fSx7IngiOjIzNTIuMTU4MzQ0MjY4Nzk5LCJ5IjoxOS41fSx7IngiOjI1MDUuOTY2Njc4NjE5Mzg0OCwieSI6MTkuNX0seyJ4IjoyNjI1LjU1ODM0NTc5NDY3NzcsInkiOjE5LjV9LHsieCI6Mjc0NS4xNTAwMTI5Njk5NzA3LCJ5IjoxOS41fSx7IngiOjI4NjkuNTAwMDE5MDczNDg2MywieSI6MTkuNX0seyJ4IjoyOTkzLjg1MDAyNTE3NzAwMiwieSI6MTkuNX0seyJ4IjozMDM1Ljg3NzYzNTA1NjA4OTcsInkiOjEzNi4xNjQ4NjgxNTc0NjA2Nn1d" marker-end="url(#mermaid-_r_dh__flowchart-v2-pointEnd)"></path><path d="M636.573,194.077L649,200.381C661.426,206.685,686.28,219.292,703.562,225.596C720.844,231.9,730.556,231.9,735.411,231.9L740.267,231.9" id="L_Umbral_Subida_0" class="edge-thickness-normal edge-pattern-solid edge-thickness-normal edge-pattern-solid flowchart-link" style=";" data-edge="true" data-et="edge" data-id="L_Umbral_Subida_0" data-points="W3sieCI6NjM2LjU3MzAzNDg5NjEwODUsInkiOjE5NC4wNzY5NjQ3MjI0MjE3fSx7IngiOjcxMS4xMzMzMzMyMDYxNzY4LCJ5IjoyMzEuODk5OTk5NjE4NTMwMjd9LHsieCI6NzQ0LjI2NjY2NjQxMjM1MzUsInkiOjIzMS44OTk5OTk2MTg1MzAyN31d" marker-end="url(#mermaid-_r_dh__flowchart-v2-pointEnd)"></path><path d="M912.017,231.9L916.183,231.9C920.35,231.9,928.683,231.9,936.35,231.9C944.017,231.9,951.017,231.9,954.517,231.9L958.017,231.9" id="L_Subida_Puntos_0" class="edge-thickness-normal edge-pattern-solid edge-thickness-normal edge-pattern-solid flowchart-link" style=";" data-edge="true" data-et="edge" data-id="L_Subida_Puntos_0" data-points="W3sieCI6OTEyLjAxNjY2NjQxMjM1MzUsInkiOjIzMS44OTk5OTk2MTg1MzAyN30seyJ4Ijo5MzcuMDE2NjY2NDEyMzUzNSwieSI6MjMxLjg5OTk5OTYxODUzMDI3fSx7IngiOjk2Mi4wMTY2NjY0MTIzNTM1LCJ5IjoyMzEuODk5OTk5NjE4NTMwMjd9XQ==" marker-end="url(#mermaid-_r_dh__flowchart-v2-pointEnd)"></path><path d="M1204.467,231.9L1208.633,231.9C1212.8,231.9,1221.133,231.9,1228.8,231.9C1236.467,231.9,1243.467,231.9,1246.967,231.9L1250.467,231.9" id="L_Puntos_Decision_0" class="edge-thickness-normal edge-pattern-solid edge-thickness-normal edge-pattern-solid flowchart-link" style=";" data-edge="true" data-et="edge" data-id="L_Puntos_Decision_0" data-points="W3sieCI6MTIwNC40NjY2NjMzNjA1OTU3LCJ5IjoyMzEuODk5OTk5NjE4NTMwMjd9LHsieCI6MTIyOS40NjY2NjMzNjA1OTU3LCJ5IjoyMzEuODk5OTk5NjE4NTMwMjd9LHsieCI6MTI1NC40NjY2NjMzNjA1OTU3LCJ5IjoyMzEuODk5OTk5NjE4NTMwMjd9XQ==" marker-end="url(#mermaid-_r_dh__flowchart-v2-pointEnd)"></path><path d="M1425.872,178.855L1444.439,162.212C1463.006,145.57,1500.141,112.285,1544.199,95.642C1588.258,79,1639.242,79,1690.225,79C1741.208,79,1792.192,79,1840.008,79C1887.825,79,1932.475,79,1981.618,79C2030.761,79,2084.397,79,2129.068,79C2173.739,79,2209.444,79,2227.297,79L2245.15,79" id="L_Decision_Fuerza_0" class="edge-thickness-normal edge-pattern-solid edge-thickness-normal edge-pattern-solid flowchart-link" style=";" data-edge="true" data-et="edge" data-id="L_Decision_Fuerza_0" data-points="W3sieCI6MTQyNS44NzE1ODM4ODgzMDA4LCJ5IjoxNzguODU0OTA3OTM5MjA0MzR9LHsieCI6MTUzNy4yNzUwMDkxNTUyNzM0LCJ5Ijo3OX0seyJ4IjoxNjkwLjIyNTAwOTkxODIxMywieSI6Nzl9LHsieCI6MTg0My4xNzUwMTA2ODExNTIzLCJ5Ijo3OX0seyJ4IjoxOTc3LjEyNTAxMTQ0NDA5MTgsInkiOjc5fSx7IngiOjIxMzguMDMzMzQ0MjY4Nzk5LCJ5Ijo3OX0seyJ4IjoyMjQ5LjE1MDAxMjk2OTk3MDcsInkiOjc5fV0=" marker-end="url(#mermaid-_r_dh__flowchart-v2-pointEnd)"></path><path d="M1451.971,204.954L1466.188,200.462C1480.405,195.969,1508.84,186.985,1548.549,182.492C1588.258,178,1639.242,178,1690.225,178C1741.208,178,1792.192,178,1840.008,178C1887.825,178,1932.475,178,1981.618,178C2030.761,178,2084.397,178,2129.093,178C2173.789,178,2209.544,178,2227.422,178L2245.3,178" id="L_Decision_Defensa_0" class="edge-thickness-normal edge-pattern-solid edge-thickness-normal edge-pattern-solid flowchart-link" style=";" data-edge="true" data-et="edge" data-id="L_Decision_Defensa_0" data-points="W3sieCI6MTQ1MS45NzA2NzY3OTIwODI1LCJ5IjoyMDQuOTU0MDAwODQyOTg1ODZ9LHsieCI6MTUzNy4yNzUwMDkxNTUyNzM0LCJ5IjoxNzh9LHsieCI6MTY5MC4yMjUwMDk5MTgyMTMsInkiOjE3OH0seyJ4IjoxODQzLjE3NTAxMDY4MTE1MjMsInkiOjE3OH0seyJ4IjoxOTc3LjEyNTAxMTQ0NDA5MTgsInkiOjE3OH0seyJ4IjoyMTM4LjAzMzM0NDI2ODc5OSwieSI6MTc4fSx7IngiOjIyNDkuMzAwMDA2ODY2NDU1LCJ5IjoxNzh9XQ==" marker-end="url(#mermaid-_r_dh__flowchart-v2-pointEnd)"></path><path d="M1451.971,258.846L1466.188,263.338C1480.405,267.831,1508.84,276.815,1548.549,281.308C1588.258,285.8,1639.242,285.8,1690.225,285.8C1741.208,285.8,1792.192,285.8,1840.008,285.8C1887.825,285.8,1932.475,285.8,1981.618,285.8C2030.761,285.8,2084.397,285.8,2129.811,285.8C2175.225,285.8,2212.417,285.8,2231.013,285.8L2249.608,285.8" id="L_Decision_Velocidad_0" class="edge-thickness-normal edge-pattern-solid edge-thickness-normal edge-pattern-solid flowchart-link" style=";" data-edge="true" data-et="edge" data-id="L_Decision_Velocidad_0" data-points="W3sieCI6MTQ1MS45NzA2NzY3OTIwODMsInkiOjI1OC44NDU5OTgzOTQwNzQzfSx7IngiOjE1MzcuMjc1MDA5MTU1MjczNCwieSI6Mjg1Ljc5OTk5OTIzNzA2MDU1fSx7IngiOjE2OTAuMjI1MDA5OTE4MjEzLCJ5IjoyODUuNzk5OTk5MjM3MDYwNTV9LHsieCI6MTg0My4xNzUwMTA2ODExNTIzLCJ5IjoyODUuNzk5OTk5MjM3MDYwNTV9LHsieCI6MTk3Ny4xMjUwMTE0NDQwOTE4LCJ5IjoyODUuNzk5OTk5MjM3MDYwNTV9LHsieCI6MjEzOC4wMzMzNDQyNjg3OTksInkiOjI4NS43OTk5OTkyMzcwNjA1NX0seyJ4IjoyMjUzLjYwODM0MTIxNzA0MSwieSI6Mjg1Ljc5OTk5OTIzNzA2MDU1fV0=" marker-end="url(#mermaid-_r_dh__flowchart-v2-pointEnd)"></path><path d="M1411.52,299.296L1432.479,330.807C1453.439,362.317,1495.357,425.338,1525.376,456.848C1555.394,488.358,1573.514,488.358,1582.574,488.358L1591.633,488.358" id="L_Decision_Clase_0" class="edge-thickness-normal edge-pattern-solid edge-thickness-normal edge-pattern-solid flowchart-link" style=";" data-edge="true" data-et="edge" data-id="L_Decision_Clase_0" data-points="W3sieCI6MTQxMS41MjAzNTM0ODU1MzExLCJ5IjoyOTkuMjk2MzIxNzAwNjI2MX0seyJ4IjoxNTM3LjI3NTAwOTE1NTI3MzQsInkiOjQ4OC4zNTgzMzU0OTQ5OTUxfSx7IngiOjE1OTUuNjMzMzQyNzQyOTIsInkiOjQ4OC4zNTgzMzU0OTQ5OTUxfV0=" marker-end="url(#mermaid-_r_dh__flowchart-v2-pointEnd)"></path><path d="M1784.817,488.358L1794.543,488.358C1804.269,488.358,1823.722,488.358,1842.508,488.358C1861.294,488.358,1879.414,488.358,1888.474,488.358L1897.533,488.358" id="L_Clase_ClaseDecision_0" class="edge-thickness-normal edge-pattern-solid edge-thickness-normal edge-pattern-solid flowchart-link" style=";" data-edge="true" data-et="edge" data-id="L_Clase_ClaseDecision_0" data-points="W3sieCI6MTc4NC44MTY2NzcwOTM1MDU5LCJ5Ijo0ODguMzU4MzM1NDk0OTk1MX0seyJ4IjoxODQzLjE3NTAxMDY4MTE1MjMsInkiOjQ4OC4zNTgzMzU0OTQ5OTUxfSx7IngiOjE5MDEuNTMzMzQ0MjY4Nzk5LCJ5Ijo0ODguMzU4MzM1NDk0OTk1fV0=" marker-end="url(#mermaid-_r_dh__flowchart-v2-pointEnd)"></path><path d="M2024.961,460.603L2043.806,449.668C2062.652,438.734,2100.343,416.865,2135.321,405.93C2170.3,394.996,2202.567,394.996,2218.7,394.996L2234.833,394.996" id="L_ClaseDecision_NivelClase_0" class="edge-thickness-normal edge-pattern-solid edge-thickness-normal edge-pattern-solid flowchart-link" style=";" data-edge="true" data-et="edge" data-id="L_ClaseDecision_NivelClase_0" data-points="W3sieCI6MjAyNC45NjExMjcyMDg5NjE0LCJ5Ijo0NjAuNjAyNzg0MDg0NTcxfSx7IngiOjIxMzguMDMzMzQ0MjY4Nzk5LCJ5IjozOTQuOTk1ODMyNDQzMjM3M30seyJ4IjoyMjM4LjgzMzM0NzMyMDU1NjYsInkiOjM5NC45OTU4MzI0NDMyMzczfV0=" marker-end="url(#mermaid-_r_dh__flowchart-v2-pointEnd)"></path><path d="M2050.158,490.917L2064.804,491.43C2079.45,491.943,2108.742,492.97,2136.94,493.483C2165.139,493.996,2192.244,493.996,2205.797,493.996L2219.35,493.996" id="L_ClaseDecision_EstadoClase_0" class="edge-thickness-normal edge-pattern-solid edge-thickness-normal edge-pattern-solid flowchart-link" style=";" data-edge="true" data-et="edge" data-id="L_ClaseDecision_EstadoClase_0" data-points="W3sieCI6MjA1MC4xNTc5MzY3MTg3NjYsInkiOjQ5MC45MTcwNzczOTU2MTM3fSx7IngiOjIxMzguMDMzMzQ0MjY4Nzk5LCJ5Ijo0OTMuOTk1ODMyNDQzMjM3M30seyJ4IjoyMjIzLjM1MDAwOTkxODIxMywieSI6NDkzLjk5NTgzMjQ0MzIzNzN9XQ==" marker-end="url(#mermaid-_r_dh__flowchart-v2-pointEnd)"></path><path d="M2455.167,79L2463.633,79C2472.1,79,2489.033,79,2515.197,116.092C2541.36,153.184,2576.754,227.368,2594.45,264.46L2612.147,301.552" id="L_Fuerza_Stats_0" class="edge-thickness-normal edge-pattern-solid edge-thickness-normal edge-pattern-solid flowchart-link" style=";" data-edge="true" data-et="edge" data-id="L_Fuerza_Stats_0" data-points="W3sieCI6MjQ1NS4xNjY2NzU1Njc2MjcsInkiOjc5fSx7IngiOjI1MDUuOTY2Njc4NjE5Mzg0OCwieSI6Nzl9LHsieCI6MjYxMy44NjkzMzgzODgxNDIzLCJ5IjozMDUuMTYyNTAyMjg4ODE4MzZ9XQ==" marker-end="url(#mermaid-_r_dh__flowchart-v2-pointEnd)"></path><path d="M2455.017,178L2463.508,178C2472,178,2488.983,178,2513.774,198.67C2538.565,219.341,2571.164,260.681,2587.463,281.351L2603.762,302.022" id="L_Defensa_Stats_0" class="edge-thickness-normal edge-pattern-solid edge-thickness-normal edge-pattern-solid flowchart-link" style=";" data-edge="true" data-et="edge" data-id="L_Defensa_Stats_0" data-points="W3sieCI6MjQ1NS4wMTY2ODE2NzExNDI2LCJ5IjoxNzh9LHsieCI6MjUwNS45NjY2Nzg2MTkzODQ4LCJ5IjoxNzh9LHsieCI6MjYwNi4yMzkxNjE0MTEwODUsInkiOjMwNS4xNjI1MDIyODg4MTgzNn1d" marker-end="url(#mermaid-_r_dh__flowchart-v2-pointEnd)"></path><path d="M2450.708,285.8L2459.918,285.8C2469.128,285.8,2487.547,285.8,2504.93,288.798C2522.312,291.795,2538.658,297.79,2546.831,300.788L2555.003,303.785" id="L_Velocidad_Stats_0" class="edge-thickness-normal edge-pattern-solid edge-thickness-normal edge-pattern-solid flowchart-link" style=";" data-edge="true" data-et="edge" data-id="L_Velocidad_Stats_0" data-points="W3sieCI6MjQ1MC43MDgzNDczMjA1NTY2LCJ5IjoyODUuNzk5OTk5MjM3MDYwNTV9LHsieCI6MjUwNS45NjY2Nzg2MTkzODQ4LCJ5IjoyODUuNzk5OTk5MjM3MDYwNTV9LHsieCI6MjU1OC43NTg3ODcxMjk3OTEsInkiOjMwNS4xNjI1MDIyODg4MTgzNn1d" marker-end="url(#mermaid-_r_dh__flowchart-v2-pointEnd)"></path><path d="M2465.483,394.996L2472.231,394.996C2478.978,394.996,2492.472,394.996,2511.092,388.51C2529.711,382.024,2553.456,369.052,2565.329,362.566L2577.201,356.08" id="L_NivelClase_Stats_0" class="edge-thickness-normal edge-pattern-solid edge-thickness-normal edge-pattern-solid flowchart-link" style=";" data-edge="true" data-et="edge" data-id="L_NivelClase_Stats_0" data-points="W3sieCI6MjQ2NS40ODMzNDEyMTcwNDEsInkiOjM5NC45OTU4MzI0NDMyMzczfSx7IngiOjI1MDUuOTY2Njc4NjE5Mzg0OCwieSI6Mzk0Ljk5NTgzMjQ0MzIzNzN9LHsieCI6MjU4MC43MTE0Njg0MjE4MzUsInkiOjM1NC4xNjI1MDIyODg4MTgzNn1d" marker-end="url(#mermaid-_r_dh__flowchart-v2-pointEnd)"></path><path d="M2480.967,493.996L2485.133,493.996C2489.3,493.996,2497.633,493.996,2518.368,471.229C2539.103,448.463,2572.239,402.93,2588.807,380.163L2605.375,357.397" id="L_EstadoClase_Stats_0" class="edge-thickness-normal edge-pattern-solid edge-thickness-normal edge-pattern-solid flowchart-link" style=";" data-edge="true" data-et="edge" data-id="L_EstadoClase_Stats_0" data-points="W3sieCI6MjQ4MC45NjY2Nzg2MTkzODQ4LCJ5Ijo0OTMuOTk1ODMyNDQzMjM3M30seyJ4IjoyNTA1Ljk2NjY3ODYxOTM4NDgsInkiOjQ5My45OTU4MzI0NDMyMzczfSx7IngiOjI2MDcuNzI4NzU2MTI0NDU0MywieSI6MzU0LjE2MjUwMjI4ODgxODM2fV0=" marker-end="url(#mermaid-_r_dh__flowchart-v2-pointEnd)"></path><path d="M2720.15,329.663L2724.317,329.663C2728.483,329.663,2736.817,329.663,2744.483,329.663C2752.15,329.663,2759.15,329.663,2762.65,329.663L2766.15,329.663" id="L_Stats_ResetEXP_0" class="edge-thickness-normal edge-pattern-solid edge-thickness-normal edge-pattern-solid flowchart-link" style=";" data-edge="true" data-et="edge" data-id="L_Stats_ResetEXP_0" data-points="W3sieCI6MjcyMC4xNTAwMTI5Njk5NzA3LCJ5IjozMjkuNjYyNTAyMjg4ODE4MzZ9LHsieCI6Mjc0NS4xNTAwMTI5Njk5NzA3LCJ5IjozMjkuNjYyNTAyMjg4ODE4MzZ9LHsieCI6Mjc3MC4xNTAwMTI5Njk5NzA3LCJ5IjozMjkuNjYyNTAyMjg4ODE4MzZ9XQ==" marker-end="url(#mermaid-_r_dh__flowchart-v2-pointEnd)"></path><path d="M2968.85,329.663L2973.017,329.663C2977.183,329.663,2985.517,329.663,2996.763,303.72C3008.008,277.778,3022.167,225.893,3029.246,199.951L3036.325,174.009" id="L_ResetEXP_Fin_0" class="edge-thickness-normal edge-pattern-solid edge-thickness-normal edge-pattern-solid flowchart-link" style=";" data-edge="true" data-et="edge" data-id="L_ResetEXP_Fin_0" data-points="W3sieCI6Mjk2OC44NTAwMjUxNzcwMDIsInkiOjMyOS42NjI1MDIyODg4MTgzNn0seyJ4IjoyOTkzLjg1MDAyNTE3NzAwMiwieSI6MzI5LjY2MjUwMjI4ODgxODM2fSx7IngiOjMwMzcuMzc4MjM0OTQzNjkxLCJ5IjoxNzAuMTQ5OTk5NjE4NTI5fV0=" marker-end="url(#mermaid-_r_dh__flowchart-v2-pointEnd)"></path></g><g class="edgeLabels"><g><rect class="background" style="stroke: none"></rect></g><g><rect class="background" style="stroke: none"></rect></g><g><rect class="background" style="stroke: none"></rect></g><g><rect class="background" style="stroke: none"></rect></g><g><rect class="background" style="stroke: none"></rect></g><g><rect class="background" style="stroke: none"></rect></g><g><rect class="background" style="stroke: none"></rect></g><g><rect class="background" style="stroke: none"></rect></g><g><rect class="background" style="stroke: none"></rect></g><g><rect class="background" style="stroke: none"></rect></g><g><rect class="background" style="stroke: none"></rect></g><g><rect class="background" style="stroke: none"></rect></g><g class="edgeLabel"><g class="label" data-id="L_Inicio_Experiencia_0" transform="translate(0, 0)"><text y="-10.1"><tspan class="text-outer-tspan" x="0" y="-0.1em" dy="1.1em"></tspan></text></g></g><g class="edgeLabel"><g class="label" data-id="L_Experiencia_Umbral_0" transform="translate(0, 0)"><text y="-10.1"><tspan class="text-outer-tspan" x="0" y="-0.1em" dy="1.1em"></tspan></text></g></g><g class="edgeLabel" transform="translate(1843.1750106811523, 19.5)"><g class="label" data-id="L_Umbral_Fin_0" transform="translate(-11.399999618530273, -11.5)"><g><rect class="background" style="" x="-2" y="-0.9999996423721313" width="22.799999237060547" height="23"></rect><text y="-10.1" style=""><tspan class="text-outer-tspan" x="0" y="-0.1em" dy="1.1em"><tspan font-style="normal" class="text-inner-tspan" font-weight="normal">No</tspan></tspan></text></g></g></g><g class="edgeLabel" transform="translate(711.1333332061768, 231.89999961853027)"><g class="label" data-id="L_Umbral_Subida_0" transform="translate(-8.133333206176758, -11.5)"><g><rect class="background" style="" x="-2" y="-0.9999996423721313" width="16.266666412353516" height="23"></rect><text y="-10.1" style=""><tspan class="text-outer-tspan" x="0" y="-0.1em" dy="1.1em"><tspan font-style="normal" class="text-inner-tspan" font-weight="normal">Sí</tspan></tspan></text></g></g></g><g class="edgeLabel"><g class="label" data-id="L_Subida_Puntos_0" transform="translate(0, 0)"><text y="-10.1"><tspan class="text-outer-tspan" x="0" y="-0.1em" dy="1.1em"></tspan></text></g></g><g class="edgeLabel"><g class="label" data-id="L_Puntos_Decision_0" transform="translate(0, 0)"><text y="-10.1"><tspan class="text-outer-tspan" x="0" y="-0.1em" dy="1.1em"></tspan></text></g></g><g class="edgeLabel" transform="translate(1843.1750106811523, 79)"><g class="label" data-id="L_Decision_Fuerza_0" transform="translate(-33.358333587646484, -11.5)"><g><rect class="background" style="" x="-2" y="-0.9999996423721313" width="66.71666717529297" height="23"></rect><text y="-10.1" style=""><tspan class="text-outer-tspan" x="0" y="-0.1em" dy="1.1em"><tspan font-style="normal" class="text-inner-tspan" font-weight="normal">Opción</tspan><tspan font-style="normal" class="text-inner-tspan" font-weight="normal"> 1</tspan></tspan></text></g></g></g><g class="edgeLabel" transform="translate(1843.1750106811523, 178)"><g class="label" data-id="L_Decision_Defensa_0" transform="translate(-33.358333587646484, -11.5)"><g><rect class="background" style="" x="-2" y="-0.9999996423721313" width="66.71666717529297" height="23"></rect><text y="-10.1" style=""><tspan class="text-outer-tspan" x="0" y="-0.1em" dy="1.1em"><tspan font-style="normal" class="text-inner-tspan" font-weight="normal">Opción</tspan><tspan font-style="normal" class="text-inner-tspan" font-weight="normal"> 2</tspan></tspan></text></g></g></g><g class="edgeLabel" transform="translate(1843.1750106811523, 285.79999923706055)"><g class="label" data-id="L_Decision_Velocidad_0" transform="translate(-33.358333587646484, -11.5)"><g><rect class="background" style="" x="-2" y="-0.9999996423721313" width="66.71666717529297" height="23"></rect><text y="-10.1" style=""><tspan class="text-outer-tspan" x="0" y="-0.1em" dy="1.1em"><tspan font-style="normal" class="text-inner-tspan" font-weight="normal">Opción</tspan><tspan font-style="normal" class="text-inner-tspan" font-weight="normal"> 3</tspan></tspan></text></g></g></g><g class="edgeLabel" transform="translate(1537.2750091552734, 488.3583354949951)"><g class="label" data-id="L_Decision_Clase_0" transform="translate(-33.358333587646484, -11.5)"><g><rect class="background" style="" x="-2" y="-0.9999996423721313" width="66.71666717529297" height="23"></rect><text y="-10.1" style=""><tspan class="text-outer-tspan" x="0" y="-0.1em" dy="1.1em"><tspan font-style="normal" class="text-inner-tspan" font-weight="normal">Opción</tspan><tspan font-style="normal" class="text-inner-tspan" font-weight="normal"> 4</tspan></tspan></text></g></g></g><g class="edgeLabel"><g class="label" data-id="L_Clase_ClaseDecision_0" transform="translate(0, 0)"><text y="-10.1"><tspan class="text-outer-tspan" x="0" y="-0.1em" dy="1.1em"></tspan></text></g></g><g class="edgeLabel" transform="translate(2138.033344268799, 394.9958324432373)"><g class="label" data-id="L_ClaseDecision_NivelClase_0" transform="translate(-60.31666564941406, -11.5)"><g><rect class="background" style="" x="-2" y="-0.9999996423721313" width="120.63333129882812" height="23"></rect><text y="-10.1" style=""><tspan class="text-outer-tspan" x="0" y="-0.1em" dy="1.1em"><tspan font-style="normal" class="text-inner-tspan" font-weight="normal">Subir</tspan><tspan font-style="normal" class="text-inner-tspan" font-weight="normal"> nivel</tspan><tspan font-style="normal" class="text-inner-tspan" font-weight="normal"> clase</tspan></tspan></text></g></g></g><g class="edgeLabel" transform="translate(2138.033344268799, 493.9958324432373)"><g class="label" data-id="L_ClaseDecision_EstadoClase_0" transform="translate(-50.19999694824219, -11.5)"><g><rect class="background" style="" x="-2" y="-0.9999996423721313" width="100.39999389648438" height="23"></rect><text y="-10.1" style=""><tspan class="text-outer-tspan" x="0" y="-0.1em" dy="1.1em"><tspan font-style="normal" class="text-inner-tspan" font-weight="normal">Nuevo</tspan><tspan font-style="normal" class="text-inner-tspan" font-weight="normal"> estado</tspan></tspan></text></g></g></g><g class="edgeLabel"><g class="label" data-id="L_Fuerza_Stats_0" transform="translate(0, 0)"><text y="-10.1"><tspan class="text-outer-tspan" x="0" y="-0.1em" dy="1.1em"></tspan></text></g></g><g class="edgeLabel"><g class="label" data-id="L_Defensa_Stats_0" transform="translate(0, 0)"><text y="-10.1"><tspan class="text-outer-tspan" x="0" y="-0.1em" dy="1.1em"></tspan></text></g></g><g class="edgeLabel"><g class="label" data-id="L_Velocidad_Stats_0" transform="translate(0, 0)"><text y="-10.1"><tspan class="text-outer-tspan" x="0" y="-0.1em" dy="1.1em"></tspan></text></g></g><g class="edgeLabel"><g class="label" data-id="L_NivelClase_Stats_0" transform="translate(0, 0)"><text y="-10.1"><tspan class="text-outer-tspan" x="0" y="-0.1em" dy="1.1em"></tspan></text></g></g><g class="edgeLabel"><g class="label" data-id="L_EstadoClase_Stats_0" transform="translate(0, 0)"><text y="-10.1"><tspan class="text-outer-tspan" x="0" y="-0.1em" dy="1.1em"></tspan></text></g></g><g class="edgeLabel"><g class="label" data-id="L_Stats_ResetEXP_0" transform="translate(0, 0)"><text y="-10.1"><tspan class="text-outer-tspan" x="0" y="-0.1em" dy="1.1em"></tspan></text></g></g><g class="edgeLabel"><g class="label" data-id="L_ResetEXP_Fin_0" transform="translate(0, 0)"><text y="-10.1"><tspan class="text-outer-tspan" x="0" y="-0.1em" dy="1.1em"></tspan></text></g></g></g><g class="nodes"><g class="node default" id="flowchart-Inicio-0" transform="translate(106.125, 152.64999961853027)"><rect class="basic label-container" style="" x="-98.125" y="-24.5" width="196.25" height="49"></rect><g class="label" style="" transform="translate(0, -9.5)"><rect></rect><g><rect class="background" style="stroke: none"></rect><text y="-10.1" style=""><tspan class="text-outer-tspan" x="0" y="-0.1em" dy="1.1em"><tspan font-style="normal" class="text-inner-tspan" font-weight="normal">Enemigo</tspan><tspan font-style="normal" class="text-inner-tspan" font-weight="normal"> derrotado</tspan></tspan></text></g></g></g><g class="node default" id="flowchart-Experiencia-1" transform="translate(318.03333282470703, 152.64999961853027)"><rect class="basic label-container" style="" x="-63.78333282470703" y="-24.5" width="127.56666564941406" height="49"></rect><g class="label" style="" transform="translate(0, -9.5)"><rect></rect><g><rect class="background" style="stroke: none"></rect><text y="-10.1" style=""><tspan class="text-outer-tspan" x="0" y="-0.1em" dy="1.1em"><tspan font-style="normal" class="text-inner-tspan" font-weight="normal">Gana</tspan><tspan font-style="normal" class="text-inner-tspan" font-weight="normal"> EXP</tspan></tspan></text></g></g></g><g class="node default" id="flowchart-Umbral-3" transform="translate(554.908332824707, 152.64999961853027)"><polygon points="123.09166717529297,0 246.18333435058594,-123.09166717529297 123.09166717529297,-246.18333435058594 0,-123.09166717529297" class="label-container" transform="translate(-122.59166717529297, 123.09166717529297)"></polygon><g class="label" style="" transform="translate(0, -9.5)"><rect></rect><g><rect class="background" style="stroke: none"></rect><text y="-10.1" style=""><tspan class="text-outer-tspan" x="0" y="-0.1em" dy="1.1em"><tspan font-style="normal" class="text-inner-tspan" font-weight="normal">¿EXP</tspan><tspan font-style="normal" class="text-inner-tspan" font-weight="normal"> acumulada</tspan><tspan font-style="normal" class="text-inner-tspan" font-weight="normal"> &gt;=</tspan><tspan font-style="normal" class="text-inner-tspan" font-weight="normal"> umbral?</tspan></tspan></text></g></g></g><g class="node default" id="flowchart-Fin-5" transform="translate(3041.449625015259, 152.64999961853027)"><g class="basic label-container outer-path"><path d="M-5.608333587646484 -17 C-1.3104395086177618 -17, 2.9874545704109607 -17, 5.608333587646484 -17 C5.608333587646484 -17, 5.6083335876464835 -17, 5.6083335876464835 -17 C5.943698248981473 -16.9892455080587, 6.279062910316463 -16.9784910161174, 6.6975273273186025 -16.965071676755716 C7.092659875506681 -16.92695371504843, 7.487792423694759 -16.88883575334114, 7.782245336283085 -16.860430234995185 C8.196731772786418 -16.793419282331648, 8.611218209289751 -16.72640832966811, 8.85803027556981 -16.68650566884811 C9.117565780028489 -16.627268383582862, 9.37710128448717 -16.56803109831761, 9.920461514108107 -16.4440126716635 C10.144379533898853 -16.377554978759278, 10.3682975536896 -16.311097285855055, 10.965173294048036 -16.133947699181366 C11.260420219899597 -16.02529410123533, 11.555667145751158 -15.916640503289289, 11.987872670595845 -15.757584874882369 C12.3541493375072 -15.595445059651995, 12.720426004418556 -15.43330524442162, 12.984357152644971 -15.316470754341125 C13.259126528886302 -15.173123746754207, 13.533895905127633 -15.029776739167291, 13.950531971713422 -14.812417970097622 C14.263449720743733 -14.622725391726638, 14.576367469774045 -14.433032813355654, 14.882426908225808 -14.247497783161291 C15.091250603791906 -14.101831412966467, 15.300074299358002 -13.956165042771643, 15.776212605997156 -13.624031571755262 C16.11107473600617 -13.356987934128593, 16.445936866015188 -13.089944296501923, 16.628216307878883 -12.944581292275288 C16.905490799973382 -12.692767934836109, 17.182765292067884 -12.44095457739693, 17.434936947905754 -12.21193895166137 C17.670640066552345 -11.968556130072834, 17.906343185198935 -11.7251733084843, 18.193059537926846 -11.42911513444239 C18.410648499847014 -11.173522758608284, 18.62823746176718 -10.91793038277418, 18.89946878960299 -10.59932663159847 C19.070943273608115 -10.369566444678467, 19.242417757613236 -10.139806257758465, 19.551261915794733 -9.725983222076888 C19.698029909418867 -9.500508171145627, 19.844797903043002 -9.275033120214367, 20.14576055873737 -8.812673661278927 C20.2919879545966 -8.553032112801406, 20.438215350455827 -8.293390564323882, 20.680521795987488 -7.863150934094199 C20.792879019899623 -7.62983875458118, 20.905236243811757 -7.396526575068161, 21.153348178915294 -6.881316833080699 C21.28764912046159 -6.549590910929285, 21.421950062007884 -6.217864988777871, 21.56229676249241 -5.871205925162238 C21.642919736129205 -5.628382374094599, 21.723542709766004 -5.38555882302696, 21.905687089269716 -4.836968972727556 C21.971767743327398 -4.584974799268974, 22.037848397385083 -4.332980625810392, 22.182108094737487 -3.7828558772573464 C22.244222519759777 -3.4639114326562677, 22.306336944782064 -3.144966988055189, 22.390423905692135 -2.713198215567453 C22.42463822175113 -2.447838736594772, 22.45885253781013 -2.1824792576220906, 22.529778507782854 -1.632391440430593 C22.550515042549517 -1.309403173210247, 22.571251577316175 -0.9864149059899009, 22.599599263058177 -0.5448768187181379 C22.599599263058177 -0.2488608433466895, 22.599599263058177 0.04715513202475885, 22.599599263058177 0.5448768187181336 C22.58129665173401 0.8299547636939926, 22.562994040409844 1.1150327086698515, 22.529778507782854 1.6323914404305815 C22.47958061970221 2.021716347689856, 22.42938273162157 2.4110412549491302, 22.39042390569214 2.7131982155674415 C22.347632713144804 2.9329219453762594, 22.304841520597467 3.152645675185077, 22.182108094737487 3.782855877257343 C22.095182718343565 4.114340011143807, 22.00825734194964 4.445824145030272, 21.905687089269716 4.836968972727545 C21.833872111971324 5.053264242187548, 21.762057134672933 5.269559511647549, 21.562296762492412 5.871205925162227 C21.465184943859814 6.111073994714026, 21.36807312522722 6.350942064265825, 21.153348178915294 6.881316833080694 C20.987752467101107 7.225179871843487, 20.822156755286915 7.569042910606279, 20.680521795987488 7.863150934094196 C20.50621707229475 8.172646621277858, 20.33191234860201 8.482142308461519, 20.145760558737372 8.812673661278923 C19.915924127889305 9.165764138784816, 19.686087697041234 9.518854616290708, 19.55126191579474 9.725983222076879 C19.34532448877778 10.001920612994047, 19.13938706176082 10.277858003911213, 18.89946878960299 10.599326631598467 C18.65964133324608 10.881041608404155, 18.419813876889165 11.162756585209843, 18.193059537926853 11.42911513444238 C17.914266897185204 11.71699142530962, 17.63547425644355 12.004867716176863, 17.434936947905754 12.211938951661365 C17.207620168201963 12.41838203651594, 16.980303388498175 12.624825121370517, 16.6282163078789 12.944581292275275 C16.437652387048495 13.096550948018619, 16.247088466218084 13.248520603761962, 15.77621260599716 13.62403157175526 C15.455116858729689 13.848014065038177, 15.13402111146222 14.071996558321095, 14.88242690822582 14.247497783161286 C14.653901970588384 14.3860309433187, 14.425377032950948 14.524564103476115, 13.950531971713428 14.81241797009762 C13.599966802348654 14.995307594407514, 13.24940163298388 15.17819721871741, 12.984357152644975 15.316470754341124 C12.667640883543001 15.456671651618251, 12.350924614441025 15.59687254889538, 11.987872670595852 15.757584874882367 C11.744370486776392 15.84719592943744, 11.500868302956933 15.936806983992515, 10.965173294048046 16.133947699181363 C10.737984378411683 16.201376176803283, 10.510795462775322 16.268804654425203, 9.920461514108126 16.444012671663497 C9.530509988490255 16.53301656271426, 9.140558462872384 16.62202045376502, 8.858030275569819 16.68650566884811 C8.458558504201525 16.75108916689308, 8.05908673283323 16.815672664938052, 7.782245336283095 16.86043023499518 C7.415258051266927 16.895833057013906, 7.04827076625076 16.93123587903263, 6.697527327318603 16.965071676755716 C6.402139518968104 16.974544188832027, 6.106751710617605 16.984016700908338, 5.608333587646488 17 C5.608333587646486 17, 5.608333587646485 17, 5.608333587646484 17 C1.133793927844585 17, -3.3407457319573144 17, -5.608333587646481 17 C-5.914827726700143 16.9901713295152, -6.221321865753803 16.9803426590304, -6.697527327318596 16.965071676755716 C-7.060422793460395 16.93006358758267, -7.423318259602194 16.895055498409622, -7.78224533628309 16.86043023499518 C-8.049505874297118 16.8172216238455, -8.316766412311146 16.77401301269582, -8.858030275569813 16.68650566884811 C-9.184788292839627 16.61192528370161, -9.511546310109443 16.537344898555112, -9.920461514108105 16.4440126716635 C-10.196287556114067 16.36214895023657, -10.472113598120027 16.280285228809642, -10.965173294048027 16.13394769918137 C-11.260305201652395 16.025336429013514, -11.555437109256763 15.91672515884566, -11.987872670595845 15.757584874882369 C-12.38105649921491 15.583534057336584, -12.774240327833978 15.4094832397908, -12.98435715264497 15.316470754341127 C-13.26604792263628 15.16951286006821, -13.547738692627592 15.02255496579529, -13.95053197171342 14.812417970097622 C-14.249653688657743 14.63108862745165, -14.548775405602063 14.449759284805678, -14.882426908225801 14.247497783161299 C-15.161713889483282 14.05267927517464, -15.441000870740766 13.85786076718798, -15.776212605997154 13.624031571755264 C-16.054714781915926 13.401933497714197, -16.333216957834697 13.179835423673131, -16.62821630787888 12.94458129227529 C-16.81847438685359 12.771793938903373, -17.008732465828306 12.599006585531459, -17.434936947905747 12.211938951661375 C-17.659583777082045 11.979972656689164, -17.884230606258345 11.748006361716952, -18.19305953792685 11.429115134442386 C-18.44642088893467 11.13150247487932, -18.699782239942493 10.833889815316255, -18.89946878960299 10.599326631598473 C-19.067092809970195 10.374725715168827, -19.234716830337398 10.150124798739183, -19.551261915794733 9.72598322207689 C-19.749831648105246 9.420926789808826, -19.948401380415763 9.115870357540762, -20.14576055873736 8.812673661278936 C-20.254313889284756 8.619926230675366, -20.362867219832147 8.427178800071799, -20.680521795987485 7.863150934094201 C-20.830346688441338 7.552036339174622, -20.980171580895195 7.240921744255043, -21.153348178915294 6.881316833080701 C-21.23985316769903 6.667647838324691, -21.32635815648277 6.45397884356868, -21.56229676249241 5.87120592516224 C-21.680089685131726 5.516432409926125, -21.797882607771044 5.161658894690009, -21.905687089269716 4.8369689727275516 C-21.99457261047377 4.498009957147905, -22.08345813167783 4.159050941568258, -22.182108094737483 3.782855877257349 C-22.232153972802546 3.525880870593333, -22.282199850867606 3.2689058639293167, -22.390423905692135 2.713198215567455 C-22.426581604799182 2.432766241438477, -22.462739303906233 2.1523342673094996, -22.52977850778285 1.6323914404306026 C-22.553619467328495 1.2610492514310443, -22.577460426874136 0.889707062431486, -22.599599263058177 0.54487681871814 C-22.599599263058177 0.26236309410543346, -22.599599263058177 -0.02015063050727306, -22.599599263058177 -0.5448768187181317 C-22.57811009987726 -0.8795878810012172, -22.556620936696344 -1.2142989432843028, -22.529778507782854 -1.6323914404305793 C-22.485485139191038 -1.9759220605137702, -22.44119177059922 -2.319452680596961, -22.39042390569214 -2.713198215567447 C-22.336694492832592 -2.989087394885779, -22.28296507997305 -3.2649765742041104, -22.182108094737487 -3.7828558772573406 C-22.123401654723512 -4.006728976562679, -22.064695214709538 -4.230602075868016, -21.90568708926972 -4.836968972727544 C-21.77299860655847 -5.236605541615114, -21.64031012384722 -5.6362421105026845, -21.562296762492416 -5.871205925162218 C-21.464920323130556 -6.111727613031387, -21.3675438837687 -6.352249300900556, -21.153348178915294 -6.881316833080693 C-20.997236535105657 -7.205486001705487, -20.84112489129602 -7.52965517033028, -20.680521795987488 -7.863150934094194 C-20.508804267143862 -8.16805279484137, -20.337086738300233 -8.472954655588547, -20.14576055873737 -8.812673661278929 C-20.025406974123253 -8.997569086708827, -19.90505338950914 -9.182464512138727, -19.551261915794733 -9.725983222076884 C-19.418579409274678 -9.903765693188747, -19.285896902754622 -10.08154816430061, -18.89946878960299 -10.599326631598467 C-18.620014474991148 -10.927589570942509, -18.340560160379304 -11.255852510286552, -18.193059537926857 -11.429115134442378 C-17.997783243388334 -11.630753941035348, -17.80250694884981 -11.832392747628319, -17.43493694790576 -12.21193895166136 C-17.16871492855105 -12.453714745790668, -16.90249290919634 -12.695490539919975, -16.6282163078789 -12.944581292275274 C-16.34248725098046 -13.172442611582246, -16.056758194082022 -13.400303930889217, -15.776212605997161 -13.624031571755259 C-15.550591018994405 -13.781415423847298, -15.324969431991647 -13.938799275939335, -14.882426908225822 -14.247497783161284 C-14.580156643794325 -14.430735793796902, -14.277886379362826 -14.613973804432522, -13.95053197171343 -14.812417970097618 C-13.601845953474943 -14.994327242468584, -13.253159935236456 -15.176236514839548, -12.984357152644977 -15.316470754341124 C-12.617264857618746 -15.478971623943204, -12.250172562592516 -15.641472493545285, -11.987872670595852 -15.757584874882365 C-11.696685145949207 -15.864744575660302, -11.405497621302562 -15.97190427643824, -10.96517329404805 -16.133947699181363 C-10.73513362367083 -16.20222226584645, -10.50509395329361 -16.27049683251154, -9.920461514108126 -16.444012671663494 C-9.658293449939466 -16.50385082150349, -9.396125385770803 -16.563688971343485, -8.85803027556982 -16.68650566884811 C-8.554468305121125 -16.735583214072015, -8.250906334672429 -16.784660759295917, -7.782245336283098 -16.86043023499518 C-7.400075159824395 -16.89729773229127, -7.017904983365692 -16.934165229587357, -6.697527327318605 -16.965071676755716 C-6.435403799085188 -16.973477468113668, -6.1732802708517704 -16.981883259471616, -5.60833358764649 -17 C-5.608333587646488 -17, -5.608333587646486 -17, -5.608333587646484 -17" stroke="none" stroke-width="0" fill="#1f2020" style=""></path><path d="M-5.608333587646484 -17 C-1.3244916029719729 -17, 2.9593503817025386 -17, 5.608333587646484 -17 M-5.608333587646484 -17 C-2.6822376994905763 -17, 0.2438581886653317 -17, 5.608333587646484 -17 M5.608333587646484 -17 C5.608333587646484 -17, 5.6083335876464835 -17, 5.6083335876464835 -17 M5.608333587646484 -17 C5.608333587646484 -17, 5.6083335876464835 -17, 5.6083335876464835 -17 M5.6083335876464835 -17 C6.020896996714045 -16.986769894477163, 6.433460405781606 -16.973539788954326, 6.6975273273186025 -16.965071676755716 M5.6083335876464835 -17 C5.904966789326892 -16.99048755058361, 6.201599991007301 -16.980975101167218, 6.6975273273186025 -16.965071676755716 M6.6975273273186025 -16.965071676755716 C7.085957699203799 -16.927600265935823, 7.474388071088996 -16.890128855115925, 7.782245336283085 -16.860430234995185 M6.6975273273186025 -16.965071676755716 C6.983899813641351 -16.937445667413467, 7.2702722999641 -16.909819658071214, 7.782245336283085 -16.860430234995185 M7.782245336283085 -16.860430234995185 C8.175361295487821 -16.796874295370756, 8.568477254692558 -16.73331835574633, 8.85803027556981 -16.68650566884811 M7.782245336283085 -16.860430234995185 C8.197345163314067 -16.793320114108052, 8.612444990345049 -16.72620999322092, 8.85803027556981 -16.68650566884811 M8.85803027556981 -16.68650566884811 C9.097840105240719 -16.631770640131112, 9.337649934911628 -16.577035611414114, 9.920461514108107 -16.4440126716635 M8.85803027556981 -16.68650566884811 C9.24447768171603 -16.598301570200235, 9.630925087862249 -16.510097471552363, 9.920461514108107 -16.4440126716635 M9.920461514108107 -16.4440126716635 C10.326652244645029 -16.323457394978796, 10.732842975181953 -16.20290211829409, 10.965173294048036 -16.133947699181366 M9.920461514108107 -16.4440126716635 C10.244364617335924 -16.347879930827567, 10.568267720563743 -16.251747189991637, 10.965173294048036 -16.133947699181366 M10.965173294048036 -16.133947699181366 C11.356104709354486 -15.990081324618204, 11.747036124660935 -15.84621495005504, 11.987872670595845 -15.757584874882369 M10.965173294048036 -16.133947699181366 C11.30589424482329 -16.00855923970613, 11.646615195598546 -15.883170780230893, 11.987872670595845 -15.757584874882369 M11.987872670595845 -15.757584874882369 C12.319242365228021 -15.610897340801445, 12.6506120598602 -15.464209806720522, 12.984357152644971 -15.316470754341125 M11.987872670595845 -15.757584874882369 C12.377531164824326 -15.585094618295967, 12.767189659052807 -15.412604361709565, 12.984357152644971 -15.316470754341125 M12.984357152644971 -15.316470754341125 C13.196551797068647 -15.20576894426245, 13.408746441492323 -15.095067134183775, 13.950531971713422 -14.812417970097622 M12.984357152644971 -15.316470754341125 C13.354435141891438 -15.12340130439751, 13.724513131137904 -14.930331854453893, 13.950531971713422 -14.812417970097622 M13.950531971713422 -14.812417970097622 C14.177738279753845 -14.674684170951046, 14.404944587794265 -14.536950371804469, 14.882426908225808 -14.247497783161291 M13.950531971713422 -14.812417970097622 C14.310141085107887 -14.594420812260173, 14.669750198502351 -14.376423654422727, 14.882426908225808 -14.247497783161291 M14.882426908225808 -14.247497783161291 C15.087790068372627 -14.104245332670791, 15.293153228519447 -13.96099288218029, 15.776212605997156 -13.624031571755262 M14.882426908225808 -14.247497783161291 C15.221506109600433 -14.010970810784405, 15.56058531097506 -13.774443838407517, 15.776212605997156 -13.624031571755262 M15.776212605997156 -13.624031571755262 C16.05150193481798 -13.404495657777355, 16.326791263638807 -13.18495974379945, 16.628216307878883 -12.944581292275288 M15.776212605997156 -13.624031571755262 C16.077383780565714 -13.38385557453838, 16.378554955134273 -13.143679577321496, 16.628216307878883 -12.944581292275288 M16.628216307878883 -12.944581292275288 C16.821098628578405 -12.76941067200253, 17.01398094927793 -12.594240051729773, 17.434936947905754 -12.21193895166137 M16.628216307878883 -12.944581292275288 C16.884256597874753 -12.712052275355884, 17.140296887870626 -12.47952325843648, 17.434936947905754 -12.21193895166137 M17.434936947905754 -12.21193895166137 C17.66235157348767 -11.97711467966005, 17.88976619906958 -11.742290407658729, 18.193059537926846 -11.42911513444239 M17.434936947905754 -12.21193895166137 C17.636890021652544 -12.003405822362097, 17.838843095399334 -11.794872693062825, 18.193059537926846 -11.42911513444239 M18.193059537926846 -11.42911513444239 C18.441302481214695 -11.137514847832854, 18.68954542450254 -10.84591456122332, 18.89946878960299 -10.59932663159847 M18.193059537926846 -11.42911513444239 C18.427278919980346 -11.153987720821958, 18.66149830203385 -10.878860307201528, 18.89946878960299 -10.59932663159847 M18.89946878960299 -10.59932663159847 C19.078192188249254 -10.35985355944905, 19.256915586895516 -10.12038048729963, 19.551261915794733 -9.725983222076888 M18.89946878960299 -10.59932663159847 C19.064137454073432 -10.378685622832025, 19.228806118543876 -10.15804461406558, 19.551261915794733 -9.725983222076888 M19.551261915794733 -9.725983222076888 C19.777749537230367 -9.378037415109732, 20.004237158666 -9.030091608142579, 20.14576055873737 -8.812673661278927 M19.551261915794733 -9.725983222076888 C19.76853215108942 -9.39219779543697, 19.985802386384105 -9.058412368797052, 20.14576055873737 -8.812673661278927 M20.14576055873737 -8.812673661278927 C20.284044718077798 -8.56713613358045, 20.42232887741823 -8.321598605881972, 20.680521795987488 -7.863150934094199 M20.14576055873737 -8.812673661278927 C20.29003726305157 -8.556495763168542, 20.43431396736577 -8.300317865058156, 20.680521795987488 -7.863150934094199 M20.680521795987488 -7.863150934094199 C20.868765187168183 -7.4722595045441444, 21.05700857834888 -7.0813680749940895, 21.153348178915294 -6.881316833080699 M20.680521795987488 -7.863150934094199 C20.791712814009248 -7.632260406065356, 20.902903832031004 -7.401369878036514, 21.153348178915294 -6.881316833080699 M21.153348178915294 -6.881316833080699 C21.258759778486656 -6.620948144144804, 21.364171378058014 -6.360579455208909, 21.56229676249241 -5.871205925162238 M21.153348178915294 -6.881316833080699 C21.28199258436946 -6.563562664438537, 21.410636989823622 -6.245808495796376, 21.56229676249241 -5.871205925162238 M21.56229676249241 -5.871205925162238 C21.660892753403097 -5.574250509677061, 21.75948874431378 -5.277295094191883, 21.905687089269716 -4.836968972727556 M21.56229676249241 -5.871205925162238 C21.694428775543486 -5.473245354229705, 21.826560788594563 -5.075284783297171, 21.905687089269716 -4.836968972727556 M21.905687089269716 -4.836968972727556 C21.97793855303301 -4.561442827415633, 22.050190016796307 -4.28591668210371, 22.182108094737487 -3.7828558772573464 M21.905687089269716 -4.836968972727556 C22.012434977133967 -4.429893011473912, 22.119182864998216 -4.022817050220268, 22.182108094737487 -3.7828558772573464 M22.182108094737487 -3.7828558772573464 C22.25648345714243 -3.400954110546377, 22.33085881954737 -3.019052343835407, 22.390423905692135 -2.713198215567453 M22.182108094737487 -3.7828558772573464 C22.225884986835492 -3.5580707885835006, 22.2696618789335 -3.3332856999096547, 22.390423905692135 -2.713198215567453 M22.390423905692135 -2.713198215567453 C22.42098620382359 -2.476163066468282, 22.451548501955045 -2.239127917369111, 22.529778507782854 -1.632391440430593 M22.390423905692135 -2.713198215567453 C22.42942365268119 -2.4107238792914765, 22.468423399670243 -2.1082495430155, 22.529778507782854 -1.632391440430593 M22.529778507782854 -1.632391440430593 C22.55164279038097 -1.2918375904336905, 22.573507072979083 -0.9512837404367881, 22.599599263058177 -0.5448768187181379 M22.529778507782854 -1.632391440430593 C22.54712871847582 -1.3621479040496767, 22.564478929168782 -1.0919043676687605, 22.599599263058177 -0.5448768187181379 M22.599599263058177 -0.5448768187181379 C22.599599263058177 -0.22795956536572992, 22.599599263058177 0.08895768798667802, 22.599599263058177 0.5448768187181336 M22.599599263058177 -0.5448768187181379 C22.599599263058177 -0.12469891991490323, 22.599599263058177 0.2954789788883314, 22.599599263058177 0.5448768187181336 M22.599599263058177 0.5448768187181336 C22.57188332054396 0.9765749952831777, 22.544167378029748 1.4082731718482218, 22.529778507782854 1.6323914404305815 M22.599599263058177 0.5448768187181336 C22.577966384989004 0.8818263563903788, 22.556333506919835 1.2187758940626239, 22.529778507782854 1.6323914404305815 M22.529778507782854 1.6323914404305815 C22.474286902240916 2.062773374956906, 22.418795296698978 2.493155309483231, 22.39042390569214 2.7131982155674415 M22.529778507782854 1.6323914404305815 C22.47719948155901 2.0401839849196346, 22.42462045533516 2.447976529408688, 22.39042390569214 2.7131982155674415 M22.39042390569214 2.7131982155674415 C22.320324003168675 3.0731463994057804, 22.250224100645212 3.4330945832441193, 22.182108094737487 3.782855877257343 M22.39042390569214 2.7131982155674415 C22.33616006239674 2.991831582221969, 22.28189621910134 3.2704649488764965, 22.182108094737487 3.782855877257343 M22.182108094737487 3.782855877257343 C22.121688101053817 4.013263499364088, 22.061268107370143 4.243671121470834, 21.905687089269716 4.836968972727545 M22.182108094737487 3.782855877257343 C22.115361566118985 4.037389319008189, 22.04861503750048 4.291922760759035, 21.905687089269716 4.836968972727545 M21.905687089269716 4.836968972727545 C21.833229541334685 5.055199562565374, 21.760771993399654 5.273430152403203, 21.562296762492412 5.871205925162227 M21.905687089269716 4.836968972727545 C21.804515801403383 5.141680772325281, 21.703344513537054 5.446392571923017, 21.562296762492412 5.871205925162227 M21.562296762492412 5.871205925162227 C21.43204490071423 6.192930542002768, 21.301793038936047 6.514655158843309, 21.153348178915294 6.881316833080694 M21.562296762492412 5.871205925162227 C21.4426288611317 6.1667879551446685, 21.322960959770985 6.4623699851271095, 21.153348178915294 6.881316833080694 M21.153348178915294 6.881316833080694 C21.034051944594523 7.129038016178285, 20.914755710273752 7.376759199275875, 20.680521795987488 7.863150934094196 M21.153348178915294 6.881316833080694 C21.029314729332995 7.138874945029017, 20.905281279750696 7.39643305697734, 20.680521795987488 7.863150934094196 M20.680521795987488 7.863150934094196 C20.52089212289552 8.146589582926175, 20.361262449803554 8.430028231758156, 20.145760558737372 8.812673661278923 M20.680521795987488 7.863150934094196 C20.479937176604754 8.219309237203447, 20.27935255722202 8.5754675403127, 20.145760558737372 8.812673661278923 M20.145760558737372 8.812673661278923 C19.916320094273832 9.16515582808632, 19.68687962981029 9.517637994893716, 19.55126191579474 9.725983222076879 M20.145760558737372 8.812673661278923 C19.99475011997974 9.044666247191266, 19.843739681222107 9.276658833103609, 19.55126191579474 9.725983222076879 M19.55126191579474 9.725983222076879 C19.31606389639585 10.041127141091026, 19.080865876996963 10.356271060105174, 18.89946878960299 10.599326631598467 M19.55126191579474 9.725983222076879 C19.40010167711016 9.928524170933173, 19.248941438425582 10.131065119789469, 18.89946878960299 10.599326631598467 M18.89946878960299 10.599326631598467 C18.730338791009565 10.797996351715856, 18.56120879241614 10.996666071833245, 18.193059537926853 11.42911513444238 M18.89946878960299 10.599326631598467 C18.662343709634186 10.877867243329112, 18.42521862966538 11.156407855059756, 18.193059537926853 11.42911513444238 M18.193059537926853 11.42911513444238 C17.930357758075967 11.70037629035566, 17.66765597822508 11.971637446268938, 17.434936947905754 12.211938951661365 M18.193059537926853 11.42911513444238 C17.93088626757264 11.699830560908909, 17.66871299721842 11.97054598737544, 17.434936947905754 12.211938951661365 M17.434936947905754 12.211938951661365 C17.22594115347215 12.401743402440266, 17.016945359038544 12.591547853219167, 16.6282163078789 12.944581292275275 M17.434936947905754 12.211938951661365 C17.205164927464505 12.420611821191592, 16.975392907023252 12.62928469072182, 16.6282163078789 12.944581292275275 M16.6282163078789 12.944581292275275 C16.360915729784026 13.15774639013882, 16.093615151689153 13.370911488002365, 15.77621260599716 13.62403157175526 M16.6282163078789 12.944581292275275 C16.295265013357948 13.210101089449681, 15.962313718836999 13.475620886624087, 15.77621260599716 13.62403157175526 M15.77621260599716 13.62403157175526 C15.444772056997232 13.85523015090749, 15.113331507997305 14.086428730059719, 14.88242690822582 14.247497783161286 M15.77621260599716 13.62403157175526 C15.517709085719481 13.804352437063933, 15.259205565441803 13.984673302372608, 14.88242690822582 14.247497783161286 M14.88242690822582 14.247497783161286 C14.524767573743816 14.464312973563827, 14.167108239261813 14.681128163966369, 13.950531971713428 14.81241797009762 M14.88242690822582 14.247497783161286 C14.629208682346999 14.401000159764497, 14.375990456468177 14.554502536367709, 13.950531971713428 14.81241797009762 M13.950531971713428 14.81241797009762 C13.64017464439683 14.974331188965333, 13.329817317080229 15.136244407833047, 12.984357152644975 15.316470754341124 M13.950531971713428 14.81241797009762 C13.666549899656207 14.960571235190674, 13.382567827598985 15.108724500283728, 12.984357152644975 15.316470754341124 M12.984357152644975 15.316470754341124 C12.748936531547747 15.420684479796266, 12.513515910450517 15.524898205251409, 11.987872670595852 15.757584874882367 M12.984357152644975 15.316470754341124 C12.72457672629386 15.431467842974214, 12.464796299942742 15.546464931607304, 11.987872670595852 15.757584874882367 M11.987872670595852 15.757584874882367 C11.777114232492554 15.835145928334025, 11.566355794389256 15.912706981785684, 10.965173294048046 16.133947699181363 M11.987872670595852 15.757584874882367 C11.671810345222326 15.873898732267932, 11.355748019848798 15.990212589653499, 10.965173294048046 16.133947699181363 M10.965173294048046 16.133947699181363 C10.630992137849788 16.233130912188322, 10.296810981651529 16.332314125195282, 9.920461514108126 16.444012671663497 M10.965173294048046 16.133947699181363 C10.570862791858033 16.2509769864533, 10.176552289668019 16.368006273725232, 9.920461514108126 16.444012671663497 M9.920461514108126 16.444012671663497 C9.638139435089824 16.508450843875686, 9.355817356071523 16.57288901608787, 8.858030275569819 16.68650566884811 M9.920461514108126 16.444012671663497 C9.546948251582071 16.529264636433243, 9.173434989056016 16.61451660120299, 8.858030275569819 16.68650566884811 M8.858030275569819 16.68650566884811 C8.528089332183242 16.73984796184462, 8.198148388796668 16.793190254841132, 7.782245336283095 16.86043023499518 M8.858030275569819 16.68650566884811 C8.535678496477518 16.73862100461637, 8.213326717385215 16.79073634038463, 7.782245336283095 16.86043023499518 M7.782245336283095 16.86043023499518 C7.438442387537313 16.893596491977146, 7.09463943879153 16.926762748959113, 6.697527327318603 16.965071676755716 M7.782245336283095 16.86043023499518 C7.357163994661567 16.9014373207863, 6.932082653040039 16.94244440657742, 6.697527327318603 16.965071676755716 M6.697527327318603 16.965071676755716 C6.397129605369845 16.974704847009917, 6.0967318834210875 16.984338017264122, 5.608333587646488 17 M6.697527327318603 16.965071676755716 C6.366213988636039 16.975696250664974, 6.0349006499534745 16.986320824574232, 5.608333587646488 17 M5.608333587646488 17 C5.608333587646487 17, 5.608333587646486 17, 5.608333587646484 17 M5.608333587646488 17 C5.608333587646487 17, 5.608333587646486 17, 5.608333587646484 17 M5.608333587646484 17 C3.1706848167839934 17, 0.7330360459215024 17, -5.608333587646481 17 M5.608333587646484 17 C2.462006685094647 17, -0.6843202174571905 17, -5.608333587646481 17 M-5.608333587646481 17 C-5.982457404439236 16.988002577383288, -6.356581221231991 16.97600515476658, -6.697527327318596 16.965071676755716 M-5.608333587646481 17 C-5.965758041353656 16.988538093454103, -6.3231824950608315 16.97707618690821, -6.697527327318596 16.965071676755716 M-6.697527327318596 16.965071676755716 C-7.092813948326865 16.926938851828766, -7.488100569335134 16.88880602690181, -7.78224533628309 16.86043023499518 M-6.697527327318596 16.965071676755716 C-6.98317288795579 16.937515793060093, -7.2688184485929845 16.90995990936447, -7.78224533628309 16.86043023499518 M-7.78224533628309 16.86043023499518 C-8.033074299207854 16.819878153477166, -8.283903262132617 16.779326071959147, -8.858030275569813 16.68650566884811 M-7.78224533628309 16.86043023499518 C-8.021476367460783 16.821753217138728, -8.260707398638477 16.783076199282274, -8.858030275569813 16.68650566884811 M-8.858030275569813 16.68650566884811 C-9.072130412927416 16.637638709630203, -9.286230550285017 16.588771750412295, -9.920461514108105 16.4440126716635 M-8.858030275569813 16.68650566884811 C-9.112469862893066 16.628431493415054, -9.366909450216319 16.570357317982, -9.920461514108105 16.4440126716635 M-9.920461514108105 16.4440126716635 C-10.174237046722272 16.36869342567857, -10.42801257933644 16.29337417969364, -10.965173294048027 16.13394769918137 M-9.920461514108105 16.4440126716635 C-10.185346105836087 16.36539631524623, -10.45023069756407 16.286779958828962, -10.965173294048027 16.13394769918137 M-10.965173294048027 16.13394769918137 C-11.275858686573605 16.01961260278767, -11.586544079099182 15.905277506393974, -11.987872670595845 15.757584874882369 M-10.965173294048027 16.13394769918137 C-11.200958985407352 16.047176385182098, -11.43674467676668 15.96040507118283, -11.987872670595845 15.757584874882369 M-11.987872670595845 15.757584874882369 C-12.206409809814836 15.660844966024026, -12.424946949033828 15.564105057165685, -12.98435715264497 15.316470754341127 M-11.987872670595845 15.757584874882369 C-12.2847494479127 15.6261663321009, -12.581626225229556 15.494747789319431, -12.98435715264497 15.316470754341127 M-12.98435715264497 15.316470754341127 C-13.312983680260672 15.145026505379352, -13.641610207876374 14.973582256417576, -13.95053197171342 14.812417970097622 M-12.98435715264497 15.316470754341127 C-13.303379812289048 15.150036837148576, -13.622402471933126 14.983602919956025, -13.95053197171342 14.812417970097622 M-13.95053197171342 14.812417970097622 C-14.220592021594648 14.64870598081061, -14.490652071475877 14.484993991523597, -14.882426908225801 14.247497783161299 M-13.95053197171342 14.812417970097622 C-14.297850438245106 14.601871474616251, -14.64516890477679 14.391324979134879, -14.882426908225801 14.247497783161299 M-14.882426908225801 14.247497783161299 C-15.177734658628145 14.0415038801471, -15.47304240903049 13.835509977132904, -15.776212605997154 13.624031571755264 M-14.882426908225801 14.247497783161299 C-15.207089199850811 14.021027422927778, -15.531751491475823 13.794557062694258, -15.776212605997154 13.624031571755264 M-15.776212605997154 13.624031571755264 C-16.029298391378592 13.422202392809163, -16.28238417676003 13.220373213863063, -16.62821630787888 12.94458129227529 M-15.776212605997154 13.624031571755264 C-16.01460479900699 13.433920141712603, -16.252996992016822 13.243808711669942, -16.62821630787888 12.94458129227529 M-16.62821630787888 12.94458129227529 C-16.79302889564195 12.794902860770984, -16.95784148340502 12.645224429266678, -17.434936947905747 12.211938951661375 M-16.62821630787888 12.94458129227529 C-16.86847953158414 12.72638058952272, -17.1087427552894 12.508179886770147, -17.434936947905747 12.211938951661375 M-17.434936947905747 12.211938951661375 C-17.67537295756188 11.96366903152791, -17.91580896721801 11.715399111394447, -18.19305953792685 11.429115134442386 M-17.434936947905747 12.211938951661375 C-17.649059365927354 11.990839975276609, -17.863181783948956 11.769740998891844, -18.19305953792685 11.429115134442386 M-18.19305953792685 11.429115134442386 C-18.387301017236243 11.20094804019229, -18.581542496545637 10.972780945942196, -18.89946878960299 10.599326631598473 M-18.19305953792685 11.429115134442386 C-18.394657457682996 11.192306746650214, -18.596255377439146 10.955498358858042, -18.89946878960299 10.599326631598473 M-18.89946878960299 10.599326631598473 C-19.123817055516138 10.298720393822343, -19.34816532142928 9.998114156046213, -19.551261915794733 9.72598322207689 M-18.89946878960299 10.599326631598473 C-19.071127235866825 10.369319952011105, -19.242785682130656 10.139313272423736, -19.551261915794733 9.72598322207689 M-19.551261915794733 9.72598322207689 C-19.697413587835786 9.501455006602756, -19.843565259876843 9.276926791128624, -20.14576055873736 8.812673661278936 M-19.551261915794733 9.72598322207689 C-19.679232584375974 9.529385910200043, -19.807203252957216 9.332788598323194, -20.14576055873736 8.812673661278936 M-20.14576055873736 8.812673661278936 C-20.27324753343118 8.586307628254017, -20.400734508125 8.3599415952291, -20.680521795987485 7.863150934094201 M-20.14576055873736 8.812673661278936 C-20.287454106110612 8.561082419890212, -20.429147653483863 8.309491178501487, -20.680521795987485 7.863150934094201 M-20.680521795987485 7.863150934094201 C-20.81248463638708 7.589127272451983, -20.944447476786674 7.315103610809766, -21.153348178915294 6.881316833080701 M-20.680521795987485 7.863150934094201 C-20.84538657766662 7.520805687396253, -21.01025135934575 7.178460440698305, -21.153348178915294 6.881316833080701 M-21.153348178915294 6.881316833080701 C-21.285120795417548 6.555835922669909, -21.4168934119198 6.230355012259117, -21.56229676249241 5.87120592516224 M-21.153348178915294 6.881316833080701 C-21.262449419853027 6.611834658635501, -21.371550660790763 6.3423524841903, -21.56229676249241 5.87120592516224 M-21.56229676249241 5.87120592516224 C-21.682557259988275 5.509000467612861, -21.802817757484142 5.146795010063481, -21.905687089269716 4.8369689727275516 M-21.56229676249241 5.87120592516224 C-21.69935079402198 5.458421018789627, -21.83640482555155 5.045636112417014, -21.905687089269716 4.8369689727275516 M-21.905687089269716 4.8369689727275516 C-22.00074378653362 4.474476588227083, -22.095800483797525 4.111984203726614, -22.182108094737483 3.782855877257349 M-21.905687089269716 4.8369689727275516 C-22.01091730777506 4.435680542501469, -22.116147526280407 4.034392112275387, -22.182108094737483 3.782855877257349 M-22.182108094737483 3.782855877257349 C-22.251227137442267 3.4279442012831245, -22.320346180147055 3.0730325253089, -22.390423905692135 2.713198215567455 M-22.182108094737483 3.782855877257349 C-22.24859628292426 3.441453083201792, -22.31508447111104 3.1000502891462354, -22.390423905692135 2.713198215567455 M-22.390423905692135 2.713198215567455 C-22.433666212090813 2.3778194262985552, -22.476908518489488 2.0424406370296557, -22.52977850778285 1.6323914404306026 M-22.390423905692135 2.713198215567455 C-22.42777605724265 2.423502304158265, -22.465128208793164 2.133806392749074, -22.52977850778285 1.6323914404306026 M-22.52977850778285 1.6323914404306026 C-22.549707348042315 1.3219836671191239, -22.56963618830178 1.0115758938076453, -22.599599263058177 0.54487681871814 M-22.52977850778285 1.6323914404306026 C-22.5540365897246 1.2545522334165735, -22.578294671666345 0.8767130264025446, -22.599599263058177 0.54487681871814 M-22.599599263058177 0.54487681871814 C-22.599599263058177 0.14270141122602564, -22.599599263058177 -0.2594739962660887, -22.599599263058177 -0.5448768187181317 M-22.599599263058177 0.54487681871814 C-22.599599263058177 0.14053067240494138, -22.599599263058177 -0.2638154739082572, -22.599599263058177 -0.5448768187181317 M-22.599599263058177 -0.5448768187181317 C-22.580157621372585 -0.847696080981936, -22.560715979686993 -1.1505153432457402, -22.529778507782854 -1.6323914404305793 M-22.599599263058177 -0.5448768187181317 C-22.573826618052962 -0.9463065679790045, -22.548053973047743 -1.3477363172398773, -22.529778507782854 -1.6323914404305793 M-22.529778507782854 -1.6323914404305793 C-22.480364106482526 -2.0156397789386964, -22.430949705182197 -2.3988881174468135, -22.39042390569214 -2.713198215567447 M-22.529778507782854 -1.6323914404305793 C-22.480597948125123 -2.0138261493359795, -22.431417388467388 -2.3952608582413792, -22.39042390569214 -2.713198215567447 M-22.39042390569214 -2.713198215567447 C-22.31862738554945 -3.0818581723002345, -22.246830865406764 -3.4505181290330222, -22.182108094737487 -3.7828558772573406 M-22.39042390569214 -2.713198215567447 C-22.33501141938902 -2.9977296213008255, -22.279598933085904 -3.282261027034204, -22.182108094737487 -3.7828558772573406 M-22.182108094737487 -3.7828558772573406 C-22.083996399170903 -4.156998294330562, -21.98588470360432 -4.5311407114037845, -21.90568708926972 -4.836968972727544 M-22.182108094737487 -3.7828558772573406 C-22.121221444331326 -4.01504306369724, -22.06033479392517 -4.2472302501371395, -21.90568708926972 -4.836968972727544 M-21.90568708926972 -4.836968972727544 C-21.82016502330854 -5.094547809311868, -21.734642957347358 -5.352126645896192, -21.562296762492416 -5.871205925162218 M-21.90568708926972 -4.836968972727544 C-21.82537168740942 -5.07886616660928, -21.745056285549122 -5.320763360491016, -21.562296762492416 -5.871205925162218 M-21.562296762492416 -5.871205925162218 C-21.46228830529563 -6.11822874797026, -21.362279848098844 -6.3652515707783035, -21.153348178915294 -6.881316833080693 M-21.562296762492416 -5.871205925162218 C-21.479832845042452 -6.074893395595007, -21.397368927592492 -6.278580866027796, -21.153348178915294 -6.881316833080693 M-21.153348178915294 -6.881316833080693 C-21.052055550561203 -7.091653143173015, -20.95076292220711 -7.301989453265336, -20.680521795987488 -7.863150934094194 M-21.153348178915294 -6.881316833080693 C-21.012391444211357 -7.1740165086843914, -20.87143470950742 -7.46671618428809, -20.680521795987488 -7.863150934094194 M-20.680521795987488 -7.863150934094194 C-20.565658406689085 -8.06710251297292, -20.450795017390682 -8.271054091851644, -20.14576055873737 -8.812673661278929 M-20.680521795987488 -7.863150934094194 C-20.54714291151268 -8.099978649555817, -20.413764027037875 -8.336806365017441, -20.14576055873737 -8.812673661278929 M-20.14576055873737 -8.812673661278929 C-19.94439579360692 -9.122024014529813, -19.743031028476466 -9.431374367780696, -19.551261915794733 -9.725983222076884 M-20.14576055873737 -8.812673661278929 C-19.921162076576678 -9.157717243014842, -19.69656359441599 -9.502760824750755, -19.551261915794733 -9.725983222076884 M-19.551261915794733 -9.725983222076884 C-19.309610069780355 -10.04977468080009, -19.067958223765977 -10.373566139523293, -18.89946878960299 -10.599326631598467 M-19.551261915794733 -9.725983222076884 C-19.340115647964836 -10.008899985148227, -19.12896938013494 -10.291816748219569, -18.89946878960299 -10.599326631598467 M-18.89946878960299 -10.599326631598467 C-18.685855658311965 -10.850248770544413, -18.472242527020942 -11.101170909490357, -18.193059537926857 -11.429115134442378 M-18.89946878960299 -10.599326631598467 C-18.73967035421046 -10.787034966599096, -18.579871918817933 -10.974743301599723, -18.193059537926857 -11.429115134442378 M-18.193059537926857 -11.429115134442378 C-17.930888369041128 -11.699828390970163, -17.6687172001554 -11.970541647497948, -17.43493694790576 -12.21193895166136 M-18.193059537926857 -11.429115134442378 C-17.975112419272076 -11.654163428244662, -17.75716530061729 -11.879211722046943, -17.43493694790576 -12.21193895166136 M-17.43493694790576 -12.21193895166136 C-17.169962928109324 -12.452581345612103, -16.904988908312887 -12.693223739562846, -16.6282163078789 -12.944581292275274 M-17.43493694790576 -12.21193895166136 C-17.19343970588543 -12.431260357197342, -16.951942463865105 -12.650581762733324, -16.6282163078789 -12.944581292275274 M-16.6282163078789 -12.944581292275274 C-16.43262835778742 -13.10055747765929, -16.23704040769594 -13.256533663043305, -15.776212605997161 -13.624031571755259 M-16.6282163078789 -12.944581292275274 C-16.306586147289313 -13.201072786407446, -15.984955986699722 -13.457564280539618, -15.776212605997161 -13.624031571755259 M-15.776212605997161 -13.624031571755259 C-15.57422920607688 -13.764926447819189, -15.3722458061566 -13.905821323883117, -14.882426908225822 -14.247497783161284 M-15.776212605997161 -13.624031571755259 C-15.483793187588082 -13.82801069940483, -15.191373769179004 -14.031989827054403, -14.882426908225822 -14.247497783161284 M-14.882426908225822 -14.247497783161284 C-14.675200834769983 -14.373119446685795, -14.467974761314144 -14.498741110210306, -13.95053197171343 -14.812417970097618 M-14.882426908225822 -14.247497783161284 C-14.649929066781386 -14.388439340953877, -14.41743122533695 -14.529380898746469, -13.95053197171343 -14.812417970097618 M-13.95053197171343 -14.812417970097618 C-13.686282036430331 -14.950276992074649, -13.422032101147233 -15.08813601405168, -12.984357152644977 -15.316470754341124 M-13.95053197171343 -14.812417970097618 C-13.694713558211754 -14.945878272561929, -13.438895144710079 -15.079338575026238, -12.984357152644977 -15.316470754341124 M-12.984357152644977 -15.316470754341124 C-12.670203166338542 -15.455537405032084, -12.356049180032107 -15.594604055723044, -11.987872670595852 -15.757584874882365 M-12.984357152644977 -15.316470754341124 C-12.621812613299499 -15.476958467407714, -12.25926807395402 -15.637446180474305, -11.987872670595852 -15.757584874882365 M-11.987872670595852 -15.757584874882365 C-11.756484707528084 -15.842737784218189, -11.525096744460315 -15.92789069355401, -10.96517329404805 -16.133947699181363 M-11.987872670595852 -15.757584874882365 C-11.610734762179783 -15.896375111404089, -11.233596853763714 -16.035165347925812, -10.96517329404805 -16.133947699181363 M-10.96517329404805 -16.133947699181363 C-10.584181066717424 -16.24702419238408, -10.203188839386797 -16.3601006855868, -9.920461514108126 -16.444012671663494 M-10.96517329404805 -16.133947699181363 C-10.684004427038051 -16.21739714302443, -10.40283556002805 -16.300846586867497, -9.920461514108126 -16.444012671663494 M-9.920461514108126 -16.444012671663494 C-9.694054613086063 -16.495688569378675, -9.467647712064 -16.54736446709386, -8.85803027556982 -16.68650566884811 M-9.920461514108126 -16.444012671663494 C-9.554126427233756 -16.52762626468272, -9.187791340359388 -16.611239857701943, -8.85803027556982 -16.68650566884811 M-8.85803027556982 -16.68650566884811 C-8.517034530399263 -16.741635216465784, -8.176038785228707 -16.796764764083463, -7.782245336283098 -16.86043023499518 M-8.85803027556982 -16.68650566884811 C-8.558576514123443 -16.734919030700155, -8.259122752677063 -16.783332392552204, -7.782245336283098 -16.86043023499518 M-7.782245336283098 -16.86043023499518 C-7.39746010959955 -16.897550003041403, -7.012674882916002 -16.934669771087624, -6.697527327318605 -16.965071676755716 M-7.782245336283098 -16.86043023499518 C-7.53016372002642 -16.884748245342966, -7.2780821037697425 -16.909066255690746, -6.697527327318605 -16.965071676755716 M-6.697527327318605 -16.965071676755716 C-6.320802631887828 -16.977152504488046, -5.9440779364570515 -16.989233332220376, -5.60833358764649 -17 M-6.697527327318605 -16.965071676755716 C-6.280400269840334 -16.978448129600483, -5.8632732123620634 -16.991824582445247, -5.60833358764649 -17 M-5.60833358764649 -17 C-5.608333587646488 -17, -5.608333587646486 -17, -5.608333587646484 -17 M-5.60833358764649 -17 C-5.608333587646488 -17, -5.608333587646486 -17, -5.608333587646484 -17" stroke="#ccc" stroke-width="1.3" fill="none" stroke-dasharray="0 0" style=""></path></g><g class="label" style="" transform="translate(0, -9.5)"><rect></rect><g><rect class="background" style="stroke: none"></rect><text y="-10.1" style=""><tspan class="text-outer-tspan" x="0" y="-0.1em" dy="1.1em"><tspan font-style="normal" class="text-inner-tspan" font-weight="normal">Fin</tspan></tspan></text></g></g></g><g class="node default" id="flowchart-Subida-7" transform="translate(828.1416664123535, 231.89999961853027)"><rect class="basic label-container" style="" x="-83.875" y="-24.5" width="167.75" height="49"></rect><g class="label" style="" transform="translate(0, -9.5)"><rect></rect><g><rect class="background" style="stroke: none"></rect><text y="-10.1" style=""><tspan class="text-outer-tspan" x="0" y="-0.1em" dy="1.1em"><tspan font-style="normal" class="text-inner-tspan" font-weight="normal">¡Sube</tspan><tspan font-style="normal" class="text-inner-tspan" font-weight="normal"> de</tspan><tspan font-style="normal" class="text-inner-tspan" font-weight="normal"> nivel!</tspan></tspan></text></g></g></g><g class="node default" id="flowchart-Puntos-9" transform="translate(1083.2416648864746, 231.89999961853027)"><rect class="basic label-container" style="" x="-121.2249984741211" y="-24.5" width="242.4499969482422" height="49"></rect><g class="label" style="" transform="translate(0, -9.5)"><rect></rect><g><rect class="background" style="stroke: none"></rect><text y="-10.1" style=""><tspan class="text-outer-tspan" x="0" y="-0.1em" dy="1.1em"><tspan font-style="normal" class="text-inner-tspan" font-weight="normal">Gana</tspan><tspan font-style="normal" class="text-inner-tspan" font-weight="normal"> puntos</tspan><tspan font-style="normal" class="text-inner-tspan" font-weight="normal"> de</tspan><tspan font-style="normal" class="text-inner-tspan" font-weight="normal"> habilidad</tspan></tspan></text></g></g></g><g class="node default" id="flowchart-Decision-11" transform="translate(1366.6916694641113, 231.89999961853027)"><polygon points="112.22500228881836,0 224.45000457763672,-112.22500228881836 112.22500228881836,-224.45000457763672 0,-112.22500228881836" class="label-container" transform="translate(-111.72500228881836, 112.22500228881836)"></polygon><g class="label" style="" transform="translate(0, -18.299999237060547)"><rect></rect><g><rect class="background" style="stroke: none"></rect><text y="-10.1" style=""><tspan class="text-outer-tspan" x="0" y="-0.1em" dy="1.1em"><tspan font-style="normal" class="text-inner-tspan" font-weight="normal">Jugador</tspan><tspan font-style="normal" class="text-inner-tspan" font-weight="normal"> decide</tspan><tspan font-style="normal" class="text-inner-tspan" font-weight="normal"> dónde</tspan></tspan><tspan class="text-outer-tspan" x="0" y="1em" dy="1.1em"><tspan font-style="normal" class="text-inner-tspan" font-weight="normal">invertir</tspan></tspan></text></g></g></g><g class="node default" id="flowchart-Fuerza-13" transform="translate(2352.158344268799, 79)"><rect class="basic label-container" style="" x="-103.00833129882812" y="-24.5" width="206.01666259765625" height="49"></rect><g class="label" style="" transform="translate(0, -9.5)"><rect></rect><g><rect class="background" style="stroke: none"></rect><text y="-10.1" style=""><tspan class="text-outer-tspan" x="0" y="-0.1em" dy="1.1em"><tspan font-style="normal" class="text-inner-tspan" font-weight="normal">Aumenta</tspan><tspan font-style="normal" class="text-inner-tspan" font-weight="normal"> daño</tspan><tspan font-style="normal" class="text-inner-tspan" font-weight="normal"> físico</tspan></tspan></text></g></g></g><g class="node default" id="flowchart-Defensa-15" transform="translate(2352.158344268799, 178)"><rect class="basic label-container" style="" x="-102.85833740234375" y="-24.5" width="205.7166748046875" height="49"></rect><g class="label" style="" transform="translate(0, -9.5)"><rect></rect><g><rect class="background" style="stroke: none"></rect><text y="-10.1" style=""><tspan class="text-outer-tspan" x="0" y="-0.1em" dy="1.1em"><tspan font-style="normal" class="text-inner-tspan" font-weight="normal">Aumenta</tspan><tspan font-style="normal" class="text-inner-tspan" font-weight="normal"> resistencia</tspan></tspan></text></g></g></g><g class="node default" id="flowchart-Velocidad-17" transform="translate(2352.158344268799, 285.79999923706055)"><rect class="basic label-container" style="" x="-98.55000305175781" y="-33.29999923706055" width="197.10000610351562" height="66.5999984741211"></rect><g class="label" style="" transform="translate(0, -18.299999237060547)"><rect></rect><g><rect class="background" style="stroke: none"></rect><text y="-10.1" style=""><tspan class="text-outer-tspan" x="0" y="-0.1em" dy="1.1em"><tspan font-style="normal" class="text-inner-tspan" font-weight="normal">Aumenta</tspan><tspan font-style="normal" class="text-inner-tspan" font-weight="normal"> velocidad</tspan></tspan><tspan class="text-outer-tspan" x="0" y="1em" dy="1.1em"><tspan font-style="normal" class="text-inner-tspan" font-weight="normal">movimiento</tspan></tspan></text></g></g></g><g class="node default" id="flowchart-Clase-19" transform="translate(1690.225009918213, 488.3583354949951)"><rect class="basic label-container" style="" x="-94.59166717529297" y="-24.5" width="189.18333435058594" height="49"></rect><g class="label" style="" transform="translate(0, -9.5)"><rect></rect><g><rect class="background" style="stroke: none"></rect><text y="-10.1" style=""><tspan class="text-outer-tspan" x="0" y="-0.1em" dy="1.1em"><tspan font-style="normal" class="text-inner-tspan" font-weight="normal">Atributos</tspan><tspan font-style="normal" class="text-inner-tspan" font-weight="normal"> de</tspan><tspan font-style="normal" class="text-inner-tspan" font-weight="normal"> clase</tspan></tspan></text></g></g></g><g class="node default" id="flowchart-ClaseDecision-21" transform="translate(1977.1250114440918, 488.3583354949951)"><polygon points="75.59166717529297,0 151.18333435058594,-75.59166717529297 75.59166717529297,-151.18333435058594 0,-75.59166717529297" class="label-container" transform="translate(-75.09166717529297, 75.59166717529297)"></polygon><g class="label" style="" transform="translate(0, -9.5)"><rect></rect><g><rect class="background" style="stroke: none"></rect><text y="-10.1" style=""><tspan class="text-outer-tspan" x="0" y="-0.1em" dy="1.1em"><tspan font-style="normal" class="text-inner-tspan" font-weight="normal">¿Qué</tspan><tspan font-style="normal" class="text-inner-tspan" font-weight="normal"> mejorar?</tspan></tspan></text></g></g></g><g class="node default" id="flowchart-NivelClase-23" transform="translate(2352.158344268799, 394.9958324432373)"><rect class="basic label-container" style="" x="-113.32499694824219" y="-24.5" width="226.64999389648438" height="49"></rect><g class="label" style="" transform="translate(0, -9.5)"><rect></rect><g><rect class="background" style="stroke: none"></rect><text y="-10.1" style=""><tspan class="text-outer-tspan" x="0" y="-0.1em" dy="1.1em"><tspan font-style="normal" class="text-inner-tspan" font-weight="normal">Aumenta</tspan><tspan font-style="normal" class="text-inner-tspan" font-weight="normal"> nivel</tspan><tspan font-style="normal" class="text-inner-tspan" font-weight="normal"> de</tspan><tspan font-style="normal" class="text-inner-tspan" font-weight="normal"> clase</tspan></tspan></text></g></g></g><g class="node default" id="flowchart-EstadoClase-25" transform="translate(2352.158344268799, 493.9958324432373)"><rect class="basic label-container" style="" x="-128.80833435058594" y="-24.5" width="257.6166687011719" height="49"></rect><g class="label" style="" transform="translate(0, -9.5)"><rect></rect><g><rect class="background" style="stroke: none"></rect><text y="-10.1" style=""><tspan class="text-outer-tspan" x="0" y="-0.1em" dy="1.1em"><tspan font-style="normal" class="text-inner-tspan" font-weight="normal">Desbloquea</tspan><tspan font-style="normal" class="text-inner-tspan" font-weight="normal"> estado</tspan><tspan font-style="normal" class="text-inner-tspan" font-weight="normal"> especial</tspan></tspan></text></g></g></g><g class="node default" id="flowchart-Stats-27" transform="translate(2625.5583457946777, 329.66250228881836)"><rect class="basic label-container" style="" x="-94.59166717529297" y="-24.5" width="189.18333435058594" height="49"></rect><g class="label" style="" transform="translate(0, -9.5)"><rect></rect><g><rect class="background" style="stroke: none"></rect><text y="-10.1" style=""><tspan class="text-outer-tspan" x="0" y="-0.1em" dy="1.1em"><tspan font-style="normal" class="text-inner-tspan" font-weight="normal">Stats</tspan><tspan font-style="normal" class="text-inner-tspan" font-weight="normal"> actualizados</tspan></tspan></text></g></g></g><g class="node default" id="flowchart-ResetEXP-37" transform="translate(2869.5000190734863, 329.66250228881836)"><rect class="basic label-container" style="" x="-99.35000610351562" y="-24.5" width="198.70001220703125" height="49"></rect><g class="label" style="" transform="translate(0, -9.5)"><rect></rect><g><rect class="background" style="stroke: none"></rect><text y="-10.1" style=""><tspan class="text-outer-tspan" x="0" y="-0.1em" dy="1.1em"><tspan font-style="normal" class="text-inner-tspan" font-weight="normal">Reset</tspan><tspan font-style="normal" class="text-inner-tspan" font-weight="normal"> contador</tspan><tspan font-style="normal" class="text-inner-tspan" font-weight="normal"> EXP</tspan></tspan></text></g></g></g></g></g></g></svg>